<svg width="628" height="531" viewBox="0 0 628 531" fill="none" xmlns="http://www.w3.org/2000/svg">
<path d="M605.78 278.2C550.77 165.73 393.41 0.999991 188.94 0.569991C-24.42 0.129991 -45.06 211.74 69.94 270.57C184.94 329.4 16.8 402.7 137 476.36C258.66 550.92 518.67 543.92 582.67 485.92C646.67 427.92 629.55 326.79 605.78 278.2Z" fill="url(#paint0_linear)"/>
<path d="M87.22 424.38C87.22 424.38 114.22 394.32 111.36 382.47C108.5 370.62 125.25 356.23 125.58 338.97C125.95 319.42 115.51 324.65 111.89 316.29C106.53 303.9 118.46 292.93 100.43 288.19C88.12 284.95 79.43 291.27 80.59 276.04C81.75 260.81 76.2 242 66.34 235.12C52.25 225.34 23.58 224.58 33.24 244.28C43.39 264.99 34.44 299.09 32.08 308.43C7.08001 407.13 87.22 424.38 87.22 424.38Z" fill="url(#paint1_linear)"/>
<path d="M57.09 255.43C60.18 280.91 92.09 321.63 77.66 348.84C63.23 376.05 85.13 418.18 85.13 418.18" stroke="url(#paint2_linear)" stroke-width="0.93" stroke-miterlimit="10"/>
<path d="M169.06 367.46C151.52 373.66 170.51 396.35 151.33 406.57C132.15 416.79 107.56 422 106.43 417C106.35 416.67 105.32 413.38 104.23 408.57C103.98 407.46 103.73 406.26 103.48 405C103.42 404.65 103.35 404.29 103.28 403.93C102.564 400.093 102.079 396.216 101.83 392.32C101.83 392.2 101.83 392.08 101.83 391.96C101.74 390.41 101.71 388.85 101.74 387.3C101.77 385.75 101.85 384.3 102.01 382.87C102.58 377.35 104.16 372.26 107.39 368.61C108.216 367.661 109.157 366.818 110.19 366.1C123.52 356.83 128.84 361.33 128.74 347.63C128.56 324.15 135.25 320.63 143.12 322.96C150.99 325.29 157.12 325.96 158.29 317.25C159.46 308.54 152.29 269.89 170.21 269.96C201.21 270.06 185.52 309.58 182.39 315.96C174.89 331.33 190.49 333.74 194.2 344.96C197.91 356.18 186.59 361.26 169.06 367.46Z" fill="url(#paint3_linear)"/>
<path d="M103 450.74C103 450.74 98.29 407.52 131.23 383.3C146.11 372.36 173.77 333.3 171.23 291.02" stroke="url(#paint4_linear)" stroke-width="2.67" stroke-miterlimit="10"/>
<path d="M56.82 330.53C60.91 323.59 90.33 352.21 85.18 358.53C80.03 364.85 52.92 337.14 56.82 330.53Z" fill="url(#paint5_linear)"/>
<path d="M49.39 369.56C49.98 361.48 85.49 373.1 83.67 381.08C81.85 389.06 48.83 377.26 49.39 369.56Z" fill="url(#paint6_linear)"/>
<path d="M116.43 333.9C122.72 338.83 91.67 365.57 86.13 359.64C80.59 353.71 110.44 329.21 116.43 333.9Z" fill="url(#paint7_linear)"/>
<path d="M113.17 367.6C118.46 373.6 88.47 388.6 83.97 381.83C79.47 375.06 108.14 361.91 113.17 367.6Z" fill="url(#paint8_linear)"/>
<path d="M51.75 398.61C50.2 391.19 89.34 395.46 89.68 403.1C90.02 410.74 53.23 405.68 51.75 398.61Z" fill="url(#paint9_linear)"/>
<path d="M111.27 390C115.33 396.86 87.27 414 84.02 406.51C80.77 399.02 107.4 383.43 111.27 390Z" fill="url(#paint10_linear)"/>
<path d="M95.79 297.17C103.69 297.75 93.47 337.56 85.66 335.72C77.85 333.88 88.27 296.62 95.79 297.17Z" fill="url(#paint11_linear)"/>
<path d="M59.78 328.64C63.87 321.7 93.29 350.32 88.14 356.64C82.99 362.96 55.88 335.25 59.78 328.64Z" fill="url(#paint12_linear)"/>
<path d="M51.76 367.91C52.35 359.83 87.86 371.45 86.04 379.43C84.22 387.41 51.2 375.61 51.76 367.91Z" fill="url(#paint13_linear)"/>
<path d="M117.63 332.12C123.92 337.05 92.87 363.79 87.33 357.86C81.79 351.93 111.63 327.43 117.63 332.12Z" fill="url(#paint14_linear)"/>
<path d="M102.65 381.34C103.2 375.92 104.71 370.92 107.82 367.34C111.57 366.59 114.72 366.74 116.1 368.34C119 371.6 111.07 377.72 102.65 381.34Z" fill="url(#paint15_linear)"/>
<path d="M114.66 366.33C119.95 372.33 89.96 387.33 85.46 380.56C80.96 373.79 109.62 360.64 114.66 366.33Z" fill="url(#paint16_linear)"/>
<path d="M87.78 326.32C87.78 326.32 88.68 347 85.94 365.05C83.2 383.1 90.11 413.65 101.36 423.41" stroke="url(#paint17_linear)" stroke-width="1.55" stroke-miterlimit="10"/>
<path d="M51.75 397.19C50.2 389.77 89.34 394.04 89.68 401.68C90.02 409.32 53.23 404.26 51.75 397.19Z" fill="url(#paint18_linear)"/>
<path d="M104.08 403.07C104.02 402.73 103.96 402.37 103.89 402.02C103.203 398.251 102.739 394.444 102.5 390.62C102.5 390.5 102.5 390.38 102.5 390.27C108.89 386.73 115.71 384.95 117.5 388.01C119.77 391.86 112 398.93 104.08 403.07Z" fill="url(#paint19_linear)"/>
<path d="M116.06 385.07C120.12 391.93 92.06 409.07 88.81 401.58C85.56 394.09 112.19 378.53 116.06 385.07Z" fill="url(#paint20_linear)"/>
<path d="M97.71 296.64C105.61 297.22 95.39 337.03 87.58 335.19C79.77 333.35 90.18 296.09 97.71 296.64Z" fill="url(#paint21_linear)"/>
<path d="M104.49 487.67H80.16C74.8542 487.669 69.7291 485.742 65.7365 482.248C61.7438 478.753 59.1547 473.929 58.45 468.67L52.45 423.89C52.3547 423.177 52.4127 422.451 52.6201 421.762C52.8276 421.073 53.1796 420.435 53.6529 419.893C54.1261 419.351 54.7096 418.916 55.3644 418.617C56.0192 418.318 56.7302 418.162 57.45 418.16H127.25C127.97 418.162 128.681 418.318 129.336 418.617C129.99 418.916 130.574 419.351 131.047 419.893C131.52 420.435 131.872 421.073 132.08 421.762C132.287 422.451 132.345 423.177 132.25 423.89L126.25 468.67C125.544 473.937 122.948 478.769 118.945 482.264C114.942 485.759 109.804 487.681 104.49 487.67Z" fill="url(#paint22_linear)"/>
<path d="M384.53 32.64H92.14C85.8163 32.64 80.69 37.7663 80.69 44.09V237.69C80.69 244.014 85.8163 249.14 92.14 249.14H384.53C390.854 249.14 395.98 244.014 395.98 237.69V44.09C395.98 37.7663 390.854 32.64 384.53 32.64Z" fill="url(#paint23_linear)"/>
<path d="M380.17 41.93H96.5C92.7223 41.93 89.66 44.9924 89.66 48.77V233.02C89.66 236.798 92.7223 239.86 96.5 239.86H380.17C383.948 239.86 387.01 236.798 387.01 233.02V48.77C387.01 44.9924 383.948 41.93 380.17 41.93Z" fill="white"/>
<path d="M414.89 458.16C414.016 458.154 413.154 457.96 412.361 457.592C411.569 457.224 410.864 456.69 410.296 456.026C409.727 455.363 409.307 454.585 409.065 453.746C408.822 452.906 408.763 452.024 408.89 451.16L423.3 344.3L435.24 345.65L420.93 452.92C420.5 455.93 414.89 458.16 414.89 458.16Z" fill="url(#paint24_linear)"/>
<path d="M521.44 450.31L506.65 341.43L516.65 337.43L533.38 448.23C534.07 452.17 531.04 452.89 528.05 453.43C525.06 453.97 522.14 454.34 521.44 450.31Z" fill="url(#paint25_linear)"/>
<path d="M482.83 463.36L470.19 339.23H482.53L495.1 462.48C495.38 466.31 492.46 466.16 489.58 466.59C486.37 467.07 483.14 467.69 482.83 463.36Z" fill="url(#paint26_linear)"/>
<path d="M528.62 324.78C526.01 344.07 497.62 346.78 464.62 347.85C463.62 348.35 427.16 348.13 410.18 342.41L410.77 211.79C410.77 200.79 415.48 182.56 431.58 182.29C458.58 181.84 508.73 177.72 528.36 183.79C532.85 199.91 536.12 217.71 528.64 264.27C524.35 290.91 529.88 315.52 528.62 324.78Z" fill="url(#paint27_linear)"/>
<path d="M521.18 191.88C527.18 209.88 526.42 220.28 518.43 249.35C505.12 297.8 526.97 322.67 480.8 347.1C508.8 345.5 526.4 341.19 528.62 324.77C529.88 315.51 524.35 290.9 528.62 264.25C534.13 229.96 544.41 201.94 530.74 185.38C527 180.8 519.16 185.8 521.18 191.88Z" fill="url(#paint28_linear)"/>
<path d="M355.92 467.42C354.34 469.27 338.3 495 338.3 495L334.77 493.89C334.77 493.89 337.5 480.65 339.77 473.58C337.19 473.24 321.29 488.29 318.38 489.74C315.47 491.19 294.09 482.9 292 478.07C289.91 473.24 294 468.92 294 468.92C294 468.92 306.3 470.67 309.41 469.92C311.57 474.72 316.41 475.39 326.12 471.12C335.83 466.85 353 453.46 353 453.46C355.48 458.17 357.5 465.57 355.92 467.42Z" fill="black"/>
<path d="M360.51 427.73C360.51 427.73 353.85 437.32 352.76 442.34C351.67 447.36 352.96 453.46 352.96 453.46C352.96 453.46 335.8 466.85 326.08 471.12C316.36 475.39 311.54 474.72 309.37 469.92C317.696 461.942 324.622 452.623 329.86 442.35C338.33 425.55 339.81 421.28 339.81 421.28L360.51 427.73Z" fill="url(#paint29_linear)"/>
<path d="M440.46 443.33C438.54 446.79 434.46 470.26 434.46 470.26H430.8L428.49 451C428.49 451 422 459.22 421.37 463.41C420.95 465.987 419.809 468.393 418.08 470.35C418.08 470.35 395.53 471.99 392.52 469.53C389.51 467.07 390.78 461.86 391.05 460.95C391.32 460.04 403.57 457 403.57 457L404.27 457.19C417.15 460.54 421.7 449.89 424.85 445.77C427.7 442.02 433.45 428.97 434.67 426.2L434.89 425.67C434.89 425.67 438.89 430.15 440.47 433.53C442.05 436.91 442.37 439.86 440.46 443.33Z" fill="#010000"/>
<path d="M434.66 426.23C433.44 429 427.66 442.05 424.84 445.8C421.7 449.92 417.15 460.57 404.26 457.22C406.59 452.479 408.227 447.427 409.12 442.22C410.31 434.36 411.68 429.89 410.31 422.77C408.94 415.65 428.31 413.77 428.31 413.77C428.31 413.77 429.33 423.19 434.66 426.23Z" fill="url(#paint30_linear)"/>
<path d="M512.85 165.07C513.29 170.33 510.26 174.84 504.21 175.07C498.16 175.3 503.13 184.84 499.02 186.34C494.91 187.84 490.17 183.08 489.52 187.6C488.87 192.12 482.82 194.35 479.58 192.73C476.34 191.11 477.86 189.1 474.18 190.36C473.323 190.669 472.439 190.897 471.54 191.04C469.54 191.29 468.12 190.65 465.32 188.85C461.43 186.34 443.75 181.4 438.96 184.09C434.65 186.51 437.34 191.09 434.74 194.57C432.14 198.05 423.43 195.3 422.11 191.35C420.43 186.35 414.04 191.35 410.44 186.85C405.44 180.58 415.85 176.9 405.44 172.75C399.99 170.57 396.52 165.36 398.21 157.82C399.69 151.18 392.69 150.53 394.97 144.54C397.33 138.36 395.08 136.92 395.72 132.41C396.85 124.33 400.17 127.64 403.63 124.63C407.09 121.62 399.83 115.37 405.01 111.63C410.19 107.89 406.49 104.1 408.93 100.63C413.69 93.93 415.93 94.46 420.7 89.7C425.47 84.94 426.39 90.86 428.77 93.36V93.27C429 86.09 430.3 85.57 434.82 81.33C439.34 77.09 438.51 81.91 445.21 82.91C451.91 83.91 453.84 74.31 458.16 72.06C462.48 69.81 465.29 76.06 469.16 77.32C473.03 78.58 470.23 76.32 476.07 81.55C481.91 86.78 480.69 90.83 485.45 91.07C490.21 91.31 495.61 87.81 499.71 93.58C503.81 99.35 499.71 104.58 503.38 107.58C507.05 110.58 510.94 107.33 511.8 114.35C512.66 121.37 508.56 124.12 511.8 127.63C515.04 131.14 507.61 131.71 505.66 137.22C503.71 142.73 504.99 143.22 506.07 149.28C507.15 155.34 512.42 159.8 512.85 165.07Z" fill="url(#paint31_linear)"/>
<path d="M437.69 298.31C426.69 297.59 394.69 298.9 380.04 302.62C352.54 309.62 367.24 340.62 377.91 367.4C381.57 358.4 387.84 318.91 391.52 314.31C399 305 427.68 300 437.69 298.31Z" fill="url(#paint32_linear)"/>
<path d="M407.96 338.97L399.36 352.05L383.53 376.11L408.78 428.43L429.85 416.58L407.96 338.97Z" fill="url(#paint33_linear)"/>
<path d="M449.65 174.09C431.28 176.71 423.4 178.09 416.07 189.42C407.19 203.14 397.07 249.94 397.07 249.94L388.64 250.85L393 268.49C392.74 267.02 397 259.91 416.76 250.92C418.34 261.53 420.62 276.69 420.62 277.16H437.23C436.31 242.13 435.26 206.63 449.65 174.09Z" fill="url(#paint34_linear)"/>
<path d="M473 172.18L453.34 173.73L436.77 246.28C436.66 256.56 436.93 266.88 437.19 277.16H454.81C445.4 241.37 461.17 205.46 473 172.18Z" fill="url(#paint35_linear)"/>
<path d="M452.11 173.83L450.84 173.93L449.66 174.1C442.14 191.1 438.84 208.92 437.52 227.1C437.06 233.48 436.84 239.9 436.78 246.33L453.35 173.78L452.11 173.83Z" fill="url(#paint36_linear)"/>
<path d="M505.06 294.29L424.58 293.22C424.58 293.22 392.77 296.11 382.22 314.49C380.86 316.86 372.41 334.95 372.41 334.95C358.55 367.62 334.31 427.57 331.58 434.88L355.41 446.27L406.68 358.09L419.74 344.09C419.74 344.09 460.01 342.09 481.88 334.43C515.71 322.59 505.06 294.29 505.06 294.29Z" fill="url(#paint37_linear)"/>
<path d="M415.46 292.94C415.46 292.94 411.84 292.49 406.19 292.12" stroke="#17FF44" stroke-width="1.95" stroke-miterlimit="10"/>
<path d="M390.55 277.36H304.07L288.22 209.22C288.024 208.383 288.02 207.512 288.208 206.673C288.396 205.834 288.772 205.048 289.306 204.375C289.841 203.701 290.522 203.158 291.296 202.785C292.071 202.412 292.92 202.218 293.78 202.22H374.62L390.55 277.36Z" fill="url(#paint38_linear)"/>
<path d="M427.14 273.1L426.23 277.16H390.55L371.87 205.77C371.762 205.351 371.751 204.913 371.838 204.489C371.925 204.066 372.107 203.667 372.372 203.325C372.636 202.982 372.975 202.705 373.363 202.513C373.751 202.322 374.177 202.221 374.61 202.22C375.247 202.22 375.865 202.434 376.365 202.827C376.866 203.221 377.22 203.771 377.37 204.39L388.67 250.86L393 268.49C392.997 268.547 392.997 268.603 393 268.66V268.72H423.6C424.142 268.714 424.678 268.831 425.168 269.062C425.658 269.293 426.09 269.632 426.43 270.053C426.771 270.475 427.011 270.968 427.134 271.495C427.257 272.023 427.259 272.572 427.14 273.1Z" fill="url(#paint39_linear)"/>
<path d="M335.58 248.86C339.59 248.86 342.84 245.61 342.84 241.6C342.84 237.59 339.59 234.34 335.58 234.34C331.57 234.34 328.32 237.59 328.32 241.6C328.32 245.61 331.57 248.86 335.58 248.86Z" fill="white"/>
<path d="M414.52 251.55C392.67 259.67 392.52 267.29 392.82 268.77H421.58C424.184 266.049 427.44 264.038 431.04 262.93L428.47 248.93C422.41 249.61 417 250.51 414.52 251.55Z" fill="url(#paint40_linear)"/>
<path d="M524.45 228.43C524.45 218.92 521.04 190.02 511.33 179.43C499.63 166.67 478.91 171.93 478.91 171.93L471.33 172.47C462.72 196.68 452.93 220.04 451.84 245.88C443.809 245.525 435.763 245.859 427.79 246.88L431.46 268.72L451.21 272.88C451.21 272.88 453.76 273.1 454.81 277.11H499.81C503.464 277.151 507.089 276.472 510.48 275.11C513.84 273.72 517.39 271.41 519.05 267.65C522 261.07 524.45 249.36 524.45 228.43Z" fill="url(#paint41_linear)"/>
<path d="M468.42 252.47C468.42 252.47 477.56 251.72 477.56 259.38C477.56 267.04 468.42 267.12 468.42 267.12" stroke="#D6D9E8" stroke-width="5.49" stroke-miterlimit="10"/>
<path d="M469.49 277.16H446.75L443.56 244.81C443.53 244.388 443.589 243.965 443.734 243.568C443.879 243.171 444.107 242.809 444.401 242.506C444.696 242.203 445.051 241.966 445.444 241.81C445.836 241.653 446.258 241.582 446.68 241.6H468.48C468.895 241.582 469.309 241.65 469.697 241.8C470.084 241.95 470.436 242.179 470.73 242.472C471.025 242.766 471.255 243.117 471.406 243.504C471.558 243.891 471.627 244.305 471.61 244.72L469.49 277.16Z" fill="url(#paint42_linear)"/>
<path d="M571.91 476.06H563.27C560.68 476.06 558.58 474.65 558.58 472.9V291.43H576.58V472.9C576.61 474.65 574.51 476.06 571.91 476.06Z" fill="url(#paint43_linear)"/>
<path d="M264.29 476.06H253C251.46 476.06 250.21 475.16 250.21 474.06V291.43H267.05V474C267.08 475.16 265.83 476.06 264.29 476.06Z" fill="url(#paint44_linear)"/>
<path d="M250.53 277.19H576.13C578.901 277.19 581.56 278.291 583.519 280.251C585.479 282.21 586.58 284.869 586.58 287.64V296.11H240.08V287.64C240.08 284.869 241.181 282.21 243.141 280.251C245.1 278.291 247.758 277.19 250.53 277.19Z" fill="url(#paint45_linear)"/>
<path d="M452.08 169.36L434.71 174.09L430.16 188.87C429.295 191.671 429.295 194.669 430.16 197.47L436.74 234.34C436.74 234.34 445.31 179.65 452.08 169.36Z" fill="url(#paint46_linear)"/>
<path d="M474.18 170.8C474.18 170.8 474.05 165.34 471.84 148.8C471.84 148.55 471.78 148.31 471.75 148.07C471.526 146.5 471.402 144.916 471.38 143.33C471.44 143.23 471.5 143.13 471.55 143.03C476.34 134.49 475.55 128.88 472.21 127.03C471.772 126.783 471.3 126.601 470.81 126.49C470.81 126.49 472.13 115.62 467.7 106.86C461.83 95.26 445.11 95.13 434.91 98.1C424.71 101.07 415.78 113.36 419.28 124.67C420.67 129.17 422.77 133.26 423.28 137.37C423.79 141.48 422.11 148.3 425.28 154.98C429.8 164.56 440.15 167.11 446.48 167.08C447.286 167.075 448.091 167.021 448.89 166.92L449.18 168.64L449.79 172.8L449.42 191.8C449.411 192.326 449.561 192.842 449.851 193.28C450.141 193.719 450.557 194.059 451.045 194.256C451.532 194.453 452.068 194.498 452.581 194.384C453.094 194.271 453.561 194.004 453.92 193.62C461.24 185.63 474.68 173.88 474.18 170.8Z" fill="url(#paint47_linear)"/>
<path d="M471.85 148.76C469.871 153.716 466.838 158.182 462.961 161.849C459.085 165.517 454.458 168.298 449.4 170L449.17 168.6L448.88 166.88C455.82 163 463.57 156 471.55 143C471.5 143.1 471.44 143.2 471.38 143.3C471.402 144.886 471.526 146.47 471.75 148.04C471.79 148.26 471.81 148.51 471.85 148.76Z" fill="url(#paint48_linear)"/>
<path d="M471.18 125.54C471.18 125.54 473.31 121.54 475.56 124.04C477.81 126.54 475.56 131.67 475.56 131.67L471.18 125.54Z" fill="url(#paint49_linear)"/>
<path d="M487.66 175L478 176.5C478 176.5 457.8 200.93 454.62 229.17C454.52 230.02 454.1 231.64 454.12 232.23C468.46 206.59 496.65 187.91 496.65 187.91L487.66 175Z" fill="url(#paint50_linear)"/>
<path d="M486.17 169L476.46 170.5C476.46 170.5 457.74 195.89 454.57 224.13C454.511 224.859 454.511 225.591 454.57 226.32C464.44 198.42 495.1 181.92 495.1 181.92L486.17 169Z" fill="url(#paint51_linear)"/>
<path d="M485.94 168.68L478.57 166.9L476.13 170.56L486.17 169.01L485.94 168.68Z" fill="#211A49"/>
<path d="M428.83 298.12L400.65 309.21C396.861 310.701 393.412 312.94 390.508 315.794C387.605 318.648 385.306 322.058 383.75 325.82L335.58 436" stroke="white" stroke-miterlimit="10"/>
<path d="M414.71 119.28C414.705 118.5 414.759 117.722 414.87 116.95C414.77 118.43 414.71 119.28 414.71 119.28Z" fill="#464B8B"/>
<path d="M519.58 172.62C522.32 177.16 516.43 185.62 509.85 185.89C503.27 186.16 504.21 189.89 499.74 191.39C495.27 192.89 490.11 188.12 489.41 192.65C488.71 197.18 482.58 191.13 479.15 192.97C474.24 195.6 475.74 187.04 471.69 188.1C463.74 190.19 467.69 184.1 462.59 182.18C453.31 178.59 468.83 166.3 467.71 163.04C466.06 158.26 460.59 160.32 461.06 154.04C461.53 147.76 468.49 147.72 464.46 144.04C461.06 140.95 459.72 137.24 463.01 134.21C466.3 131.18 463.94 128.67 456.67 126.4C449.4 124.13 452.2 115.57 453.38 111.29C454.56 107.01 442.87 114.39 434.38 115.16C432.048 115.392 429.704 114.846 427.714 113.607C425.724 112.368 424.201 110.506 423.38 108.31C423.38 108.31 416.64 118.66 419.77 127.31C406.77 117.93 406.36 104.31 408.59 95C410.75 86 414.3 87.88 419.22 83.61C424.14 79.34 427.66 69.44 437.17 76.27C443.24 80.63 449.17 71.92 454.33 71.56C461.33 71.07 462.08 73.21 466.33 74.48C470.58 75.75 473.14 71.48 479.49 76.74C485.84 82 479.09 88.04 484.27 88.28C489.45 88.52 495.27 85.01 499.78 90.8C504.29 96.59 499.78 101.88 503.78 104.91C507.78 107.94 509.84 106.91 512.94 111.71C516.73 117.59 509.42 121.53 512.94 125.05C516.46 128.57 518.11 131.59 515.99 137.14C513.87 142.69 520.15 143.57 520.15 152.29C520.09 158.52 511.64 159.48 519.58 172.62Z" fill="url(#paint52_linear)"/>
<path d="M495.83 254.66L492.25 224C492.25 224 487.7 226.25 487.31 230.59C486.92 234.93 485.94 252.45 485.94 252.45L495.83 254.66Z" fill="url(#paint53_linear)"/>
<path d="M423.33 229.24L416.73 250.92L423.33 249.58V229.24Z" fill="url(#paint54_linear)"/>
<defs>
<linearGradient id="paint0_linear" x1="0.669994" y1="265.71" x2="627.18" y2="265.71" gradientUnits="userSpaceOnUse">
<stop stop-color="#F0F2F5"/>
<stop offset="0.99" stop-color="#F5F7F8"/>
</linearGradient>
<linearGradient id="paint1_linear" x1="86.94" y1="423.06" x2="62.41" y2="236.88" gradientUnits="userSpaceOnUse">
<stop stop-color="#D71962"/>
<stop offset="0.0001" stop-color="#B43C59"/>
<stop offset="0.99" stop-color="#E9D7DC"/>
</linearGradient>
<linearGradient id="paint2_linear" x1="85.71" y1="418.26" x2="64.13" y2="254.49" gradientUnits="userSpaceOnUse">
<stop stop-color="#3F3D9E"/>
<stop offset="0.99" stop-color="#423E9F"/>
</linearGradient>
<linearGradient id="paint3_linear" x1="98.29" y1="354.57" x2="189.33" y2="333.65" gradientUnits="userSpaceOnUse">
<stop offset="0.01" stop-color="#E3D6DA"/>
<stop offset="1" stop-color="#D5AFBA"/>
</linearGradient>
<linearGradient id="paint4_linear" x1="101.68" y1="370.795" x2="172.508" y2="371.04" gradientUnits="userSpaceOnUse">
<stop stop-color="#BAC6D8"/>
<stop offset="0.99" stop-color="#D6DBF8"/>
</linearGradient>
<linearGradient id="paint5_linear" x1="2703.66" y1="13334.4" x2="1866.38" y2="12529.7" gradientUnits="userSpaceOnUse">
<stop stop-color="#1F1844"/>
<stop offset="0.99" stop-color="#3D3C99"/>
</linearGradient>
<linearGradient id="paint6_linear" x1="3118.29" y1="8087.46" x2="2283.92" y2="7497.55" gradientUnits="userSpaceOnUse">
<stop stop-color="#1F1844"/>
<stop offset="0.99" stop-color="#3D3C99"/>
</linearGradient>
<linearGradient id="paint7_linear" x1="3004.84" y1="12113.6" x2="3828.27" y2="11355.1" gradientUnits="userSpaceOnUse">
<stop stop-color="#1F1844"/>
<stop offset="0.99" stop-color="#3D3C99"/>
</linearGradient>
<linearGradient id="paint8_linear" x1="2798.44" y1="8282.39" x2="3426.58" y2="7756.79" gradientUnits="userSpaceOnUse">
<stop stop-color="#1F1844"/>
<stop offset="0.99" stop-color="#3D3C99"/>
</linearGradient>
<linearGradient id="paint9_linear" x1="3648.9" y1="6208.28" x2="2357.45" y2="5726.71" gradientUnits="userSpaceOnUse">
<stop stop-color="#1F1844"/>
<stop offset="0.99" stop-color="#3D3C99"/>
</linearGradient>
<linearGradient id="paint10_linear" x1="2610.39" y1="9976.82" x2="3187.86" y2="9482.66" gradientUnits="userSpaceOnUse">
<stop stop-color="#1F1844"/>
<stop offset="0.99" stop-color="#3D3C99"/>
</linearGradient>
<linearGradient id="paint11_linear" x1="95.26" y1="298.18" x2="86.33" y2="334.68" gradientUnits="userSpaceOnUse">
<stop offset="0.01" stop-color="#3D3C99"/>
<stop offset="1" stop-color="#1F1844"/>
</linearGradient>
<linearGradient id="paint12_linear" x1="67.2858" y1="349.514" x2="75.5686" y2="341.124" gradientUnits="userSpaceOnUse">
<stop stop-color="#E0E4EB"/>
<stop offset="0.99" stop-color="#F3F6FD"/>
</linearGradient>
<linearGradient id="paint13_linear" x1="36508" y1="-96871.3" x2="36633" y2="-97261" gradientUnits="userSpaceOnUse">
<stop stop-color="#E0E4EB"/>
<stop offset="0.99" stop-color="#F3F6FD"/>
</linearGradient>
<linearGradient id="paint14_linear" x1="-67383.2" y1="20176.7" x2="-67146.4" y2="20469.8" gradientUnits="userSpaceOnUse">
<stop stop-color="#E0E4EB"/>
<stop offset="0.99" stop-color="#F3F6FD"/>
</linearGradient>
<linearGradient id="paint15_linear" x1="1603.41" y1="6938.61" x2="1781.02" y2="6761.12" gradientUnits="userSpaceOnUse">
<stop offset="0.01" stop-color="#BBC0D9"/>
<stop offset="1" stop-color="#D6DBF8"/>
</linearGradient>
<linearGradient id="paint16_linear" x1="-49781.3" y1="1346.23" x2="-49595.7" y2="1663.86" gradientUnits="userSpaceOnUse">
<stop stop-color="#E0E4EB"/>
<stop offset="0.99" stop-color="#F3F6FD"/>
</linearGradient>
<linearGradient id="paint17_linear" x1="10655.9" y1="4950.35" x2="10926.6" y2="4885.96" gradientUnits="userSpaceOnUse">
<stop stop-color="#E0E4EB"/>
<stop offset="0.99" stop-color="#F3F6FD"/>
</linearGradient>
<linearGradient id="paint18_linear" x1="14556.7" y1="-130516" x2="14574.2" y2="-130952" gradientUnits="userSpaceOnUse">
<stop stop-color="#E0E4EB"/>
<stop offset="0.99" stop-color="#F3F6FD"/>
</linearGradient>
<linearGradient id="paint19_linear" x1="1750.67" y1="8285.52" x2="1955.87" y2="8074.72" gradientUnits="userSpaceOnUse">
<stop offset="0.01" stop-color="#BBC0D9"/>
<stop offset="1" stop-color="#D6DBF8"/>
</linearGradient>
<linearGradient id="paint20_linear" x1="-57428.2" y1="3040.51" x2="-57295.6" y2="3391.03" gradientUnits="userSpaceOnUse">
<stop stop-color="#E0E4EB"/>
<stop offset="0.99" stop-color="#F3F6FD"/>
</linearGradient>
<linearGradient id="paint21_linear" x1="97.17" y1="297.65" x2="88.25" y2="334.15" gradientUnits="userSpaceOnUse">
<stop stop-color="#E6EAF1"/>
<stop offset="0.99" stop-color="#F3F6FD"/>
</linearGradient>
<linearGradient id="paint22_linear" x1="60.68" y1="457.8" x2="128.7" y2="442.17" gradientUnits="userSpaceOnUse">
<stop offset="0.11" stop-color="#E84B67"/>
<stop offset="0.56" stop-color="#EB768B"/>
<stop offset="1" stop-color="#DC7386"/>
</linearGradient>
<linearGradient id="paint23_linear" x1="80.69" y1="140.89" x2="395.98" y2="140.89" gradientUnits="userSpaceOnUse">
<stop offset="0.01" stop-color="#DF92A7"/>
<stop offset="1" stop-color="#DFAFBE"/>
</linearGradient>
<linearGradient id="paint24_linear" x1="11338.9" y1="54569" x2="12036.5" y2="54569" gradientUnits="userSpaceOnUse">
<stop offset="0.01" stop-color="#E3D6DA"/>
<stop offset="1" stop-color="#E9D7DC"/>
</linearGradient>
<linearGradient id="paint25_linear" x1="14233.8" y1="55080" x2="14954.5" y2="55080" gradientUnits="userSpaceOnUse">
<stop offset="0.01" stop-color="#E9D7DC"/>
<stop offset="1" stop-color="#E3D6DA"/>
</linearGradient>
<linearGradient id="paint26_linear" x1="12316" y1="61389.2" x2="12937.5" y2="61389.2" gradientUnits="userSpaceOnUse">
<stop offset="0.01" stop-color="#E9D7DC"/>
<stop offset="1" stop-color="#E3D6DA"/>
</linearGradient>
<linearGradient id="paint27_linear" x1="471.61" y1="346.25" x2="471.61" y2="181.22" gradientUnits="userSpaceOnUse">
<stop stop-color="#E9D7D7"/>
<stop offset="0.99" stop-color="#F4D9E3"/>
</linearGradient>
<linearGradient id="paint28_linear" x1="30460.8" y1="56148.7" x2="31319.3" y2="56178.5" gradientUnits="userSpaceOnUse">
<stop offset="0.01" stop-color="#E1C2CB"/>
<stop offset="1" stop-color="#E9D7DC"/>
</linearGradient>
<linearGradient id="paint29_linear" x1="305.034" y1="454.019" x2="363.345" y2="438.078" gradientUnits="userSpaceOnUse">
<stop stop-color="#A96E46"/>
<stop offset="1" stop-color="#FFD0B9"/>
</linearGradient>
<linearGradient id="paint30_linear" x1="12846.1" y1="22936.4" x2="13769.9" y2="22936.4" gradientUnits="userSpaceOnUse">
<stop stop-color="#A96E46"/>
<stop offset="1" stop-color="#FFD0B9"/>
</linearGradient>
<linearGradient id="paint31_linear" x1="468.76" y1="196.28" x2="447.8" y2="109.5" gradientUnits="userSpaceOnUse">
<stop stop-color="#C96D83"/>
<stop offset="0.22" stop-color="#D71962"/>
<stop offset="0.58" stop-color="#B43C59"/>
<stop offset="0.78" stop-color="#812239"/>
</linearGradient>
<linearGradient id="paint32_linear" x1="364.3" y1="332.76" x2="437.69" y2="332.76" gradientUnits="userSpaceOnUse">
<stop stop-color="#F7D6D2"/>
<stop offset="0.95" stop-color="#F7E5E3"/>
</linearGradient>
<linearGradient id="paint33_linear" x1="383.53" y1="383.7" x2="429.85" y2="383.7" gradientUnits="userSpaceOnUse">
<stop offset="0.05" stop-color="#F7E5E3"/>
<stop offset="1" stop-color="#F7D6D2"/>
</linearGradient>
<linearGradient id="paint34_linear" x1="22805.5" y1="32308.2" x2="30030.3" y2="31719.7" gradientUnits="userSpaceOnUse">
<stop offset="0.01" stop-color="#B43C59"/>
<stop offset="1" stop-color="#C96D83"/>
</linearGradient>
<linearGradient id="paint35_linear" x1="413.77" y1="230.99" x2="467.09" y2="223.65" gradientUnits="userSpaceOnUse">
<stop offset="0.01" stop-color="#BBBFD9"/>
<stop offset="0.29" stop-color="#CACDE2"/>
<stop offset="0.84" stop-color="#F2F3F8"/>
<stop offset="1" stop-color="white"/>
</linearGradient>
<linearGradient id="paint36_linear" x1="423.16" y1="212.94" x2="451.34" y2="209.06" gradientUnits="userSpaceOnUse">
<stop stop-color="white"/>
<stop offset="0.16" stop-color="#F2F3F8"/>
<stop offset="0.71" stop-color="#CACDE2"/>
<stop offset="0.99" stop-color="#BBBFD9"/>
</linearGradient>
<linearGradient id="paint37_linear" x1="66732" y1="63504.4" x2="71827.5" y2="67020" gradientUnits="userSpaceOnUse">
<stop offset="0.05" stop-color="#F7E5E3"/>
<stop offset="1" stop-color="#F7D6D2"/>
</linearGradient>
<linearGradient id="paint38_linear" x1="27759.9" y1="23855.5" x2="41547.6" y2="23855.5" gradientUnits="userSpaceOnUse">
<stop offset="0.01" stop-color="#EECFD8"/>
<stop offset="0.29" stop-color="#E098AC"/>
<stop offset="0.84" stop-color="#FFECF1"/>
<stop offset="1" stop-color="white"/>
</linearGradient>
<linearGradient id="paint39_linear" x1="21679.4" y1="25788.2" x2="24194" y2="23355.2" gradientUnits="userSpaceOnUse">
<stop stop-color="white"/>
<stop offset="0.16" stop-color="#FFE9EF"/>
<stop offset="0.71" stop-color="#C898A5"/>
<stop offset="0.994792" stop-color="#E8BBC8"/>
</linearGradient>
<linearGradient id="paint40_linear" x1="400.1" y1="266.58" x2="426.6" y2="257.08" gradientUnits="userSpaceOnUse">
<stop stop-color="#FFD0B9"/>
<stop offset="1" stop-color="#A96E46"/>
</linearGradient>
<linearGradient id="paint41_linear" x1="47706.1" y1="20474.2" x2="46886.9" y2="32139.7" gradientUnits="userSpaceOnUse">
<stop stop-color="#C9576C"/>
<stop offset="1" stop-color="#E2AFBE"/>
</linearGradient>
<linearGradient id="paint42_linear" x1="13029.9" y1="12133.1" x2="13817.8" y2="12133.1" gradientUnits="userSpaceOnUse">
<stop stop-color="white"/>
<stop offset="0.16" stop-color="#F2F3F8"/>
<stop offset="0.71" stop-color="#CACDE2"/>
<stop offset="0.99" stop-color="#BBBFD9"/>
</linearGradient>
<linearGradient id="paint43_linear" x1="10703.2" y1="84988.6" x2="11027.7" y2="84988.6" gradientUnits="userSpaceOnUse">
<stop offset="0.11" stop-color="#E58E9D"/>
<stop offset="0.56" stop-color="#E3A9B3"/>
<stop offset="1" stop-color="#E2C7CC"/>
</linearGradient>
<linearGradient id="paint44_linear" x1="4548.75" y1="84988.6" x2="4832.18" y2="84988.6" gradientUnits="userSpaceOnUse">
<stop offset="0.11" stop-color="#E68E9D"/>
<stop offset="0.56" stop-color="#E3A9B3"/>
<stop offset="1" stop-color="#E2C7CC"/>
</linearGradient>
<linearGradient id="paint45_linear" x1="413.33" y1="294.62" x2="413.33" y2="277.56" gradientUnits="userSpaceOnUse">
<stop offset="0.1101" stop-color="#D71962"/>
<stop offset="0.56" stop-color="#B43C59"/>
<stop offset="1" stop-color="#B43C59"/>
</linearGradient>
<linearGradient id="paint46_linear" x1="10235.9" y1="18159.1" x2="10745.3" y2="18159.1" gradientUnits="userSpaceOnUse">
<stop offset="0.01" stop-color="#C24665"/>
<stop offset="1" stop-color="#AE4663"/>
</linearGradient>
<linearGradient id="paint47_linear" x1="23667.4" y1="23420.8" x2="27761.4" y2="22329.2" gradientUnits="userSpaceOnUse">
<stop stop-color="#A96E46"/>
<stop offset="1" stop-color="#FFD0B9"/>
</linearGradient>
<linearGradient id="paint48_linear" x1="472.09" y1="147.66" x2="449.46" y2="169.87" gradientUnits="userSpaceOnUse">
<stop stop-color="#FFD0B9" stop-opacity="0"/>
<stop offset="1" stop-color="#A96E46"/>
</linearGradient>
<linearGradient id="paint49_linear" x1="476.36" y1="125.48" x2="472.87" y2="128.91" gradientUnits="userSpaceOnUse">
<stop stop-color="#753200"/>
<stop offset="1" stop-color="#A04400"/>
</linearGradient>
<linearGradient id="paint50_linear" x1="19979.1" y1="15948.7" x2="21788.4" y2="15948.7" gradientUnits="userSpaceOnUse">
<stop stop-color="#B43C59"/>
<stop offset="0.99" stop-color="#D71962"/>
</linearGradient>
<linearGradient id="paint51_linear" x1="19099.7" y1="15798.4" x2="20746.6" y2="15798.4" gradientUnits="userSpaceOnUse">
<stop offset="0.01" stop-color="#AE4663"/>
<stop offset="1" stop-color="#AB304E"/>
</linearGradient>
<linearGradient id="paint52_linear" x1="407.52" y1="132.96" x2="520.27" y2="132.96" gradientUnits="userSpaceOnUse">
<stop offset="0.2199" stop-color="#812239"/>
<stop offset="0.22" stop-color="#B43C59"/>
<stop offset="0.2201" stop-color="#812239"/>
<stop offset="0.447917" stop-color="#8D2D44"/>
<stop offset="0.78" stop-color="#D71962"/>
<stop offset="1" stop-color="#C96D83"/>
</linearGradient>
<linearGradient id="paint53_linear" x1="5341.33" y1="9861.36" x2="5439.14" y2="9861.36" gradientUnits="userSpaceOnUse">
<stop stop-color="#B43C59"/>
<stop offset="0.99" stop-color="#C96D83"/>
<stop offset="0.9901" stop-color="#C96D83"/>
</linearGradient>
<linearGradient id="paint54_linear" x1="3169.78" y1="7083.81" x2="3238.05" y2="7080.95" gradientUnits="userSpaceOnUse">
<stop stop-color="#AB3D65"/>
<stop offset="1" stop-color="#A34051"/>
</linearGradient>
</defs>
</svg>
