<svg xmlns="http://www.w3.org/2000/svg" xmlns:xlink="http://www.w3.org/1999/xlink" viewBox="0 0 650 650"><defs><style>.cls-1{fill:url(#Безымянный_градиент_263);}.cls-2{fill:url(#Безымянный_градиент_5);}.cls-18,.cls-3,.cls-41,.cls-46,.cls-5,.cls-58{fill:none;stroke-miterlimit:10;}.cls-3{stroke-width:0.93px;stroke:url(#Безымянный_градиент_10);}.cls-4{fill:url(#Безымянный_градиент_17);}.cls-5{stroke-width:2.67px;stroke:url(#Безымянный_градиент_164);}.cls-6{fill:url(#Безымянный_градиент_5-2);}.cls-7{fill:url(#Безымянный_градиент_5-3);}.cls-8{fill:url(#Безымянный_градиент_5-4);}.cls-9{fill:url(#Безымянный_градиент_5-5);}.cls-10{fill:url(#Безымянный_градиент_5-6);}.cls-11{fill:url(#Безымянный_градиент_5-7);}.cls-12{fill:url(#Безымянный_градиент_18);}.cls-13{fill:url(#Безымянный_градиент_33);}.cls-14{fill:url(#Безымянный_градиент_33-2);}.cls-15{fill:url(#Безымянный_градиент_33-3);}.cls-16{fill:url(#Безымянный_градиент_17-2);}.cls-17{fill:url(#Безымянный_градиент_33-4);}.cls-18{stroke-width:1.55px;stroke:url(#Безымянный_градиент_33-5);}.cls-19{fill:url(#Безымянный_градиент_33-6);}.cls-20{fill:url(#Безымянный_градиент_17-3);}.cls-21{fill:url(#Безымянный_градиент_33-7);}.cls-22{fill:url(#Безымянный_градиент_11);}.cls-23{fill:url(#Безымянный_градиент_16);}.cls-24{fill:url(#Безымянный_градиент_170);}.cls-25{fill:#fff;}.cls-26{fill:url(#Безымянный_градиент_170-2);}.cls-27{fill:url(#Безымянный_градиент_170-3);}.cls-28{fill:url(#Безымянный_градиент_170-4);}.cls-29{fill:url(#Безымянный_градиент_55);}.cls-30{fill:url(#Безымянный_градиент_170-5);}.cls-31{fill:#191337;}.cls-32{fill:url(#Безымянный_градиент_157);}.cls-33{fill:url(#Безымянный_градиент_157-2);}.cls-34{fill:url(#Безымянный_градиент_53);}.cls-35{fill:url(#Безымянный_градиент_50);}.cls-36{fill:url(#Безымянный_градиент_9);}.cls-37{fill:url(#Безымянный_градиент_18-2);}.cls-38{fill:url(#Безымянный_градиент_271);}.cls-39{fill:url(#Безымянный_градиент_269);}.cls-40{fill:url(#Безымянный_градиент_9-2);}.cls-41{stroke:#17ff44;stroke-width:1.95px;}.cls-42{fill:url(#Безымянный_градиент_271-2);}.cls-43{fill:url(#Безымянный_градиент_269-2);}.cls-44{fill:url(#Безымянный_градиент_62);}.cls-45{fill:url(#Безымянный_градиент_5-8);}.cls-46{stroke:#d6d9e8;stroke-width:5.49px;}.cls-47{fill:url(#Безымянный_градиент_269-3);}.cls-48{fill:url(#Безымянный_градиент_16-2);}.cls-49{fill:url(#Безымянный_градиент_16-3);}.cls-50{fill:url(#Безымянный_градиент_40);}.cls-51{fill:url(#Безымянный_градиент_18-3);}.cls-52{fill:url(#Безымянный_градиент_157-3);}.cls-53{fill:url(#Безымянный_градиент_61);}.cls-54{fill:url(#Безымянный_градиент_123);}.cls-55{fill:url(#Безымянный_градиент_5-9);}.cls-56{fill:url(#Безымянный_градиент_18-4);}.cls-57{fill:#211a49;}.cls-58{stroke:#fff;}.cls-59{fill:#464b8b;}.cls-60{fill:url(#Безымянный_градиент_52);}.cls-61{fill:url(#Безымянный_градиент_5-10);}.cls-62{fill:url(#Безымянный_градиент_18-5);}</style><linearGradient id="Безымянный_градиент_263" x1="5.67" y1="340.71" x2="632.18" y2="340.71" gradientUnits="userSpaceOnUse"><stop offset="0" stop-color="#f0f2f5"/><stop offset="0.99" stop-color="#f5f7f8"/></linearGradient><linearGradient id="Безымянный_градиент_5" x1="91.94" y1="498.06" x2="67.41" y2="311.88" gradientUnits="userSpaceOnUse"><stop offset="0" stop-color="#1f1844"/><stop offset="0.99" stop-color="#3d3c99"/></linearGradient><linearGradient id="Безымянный_градиент_10" x1="90.71" y1="493.26" x2="69.13" y2="329.49" gradientUnits="userSpaceOnUse"><stop offset="0" stop-color="#3f3d9e"/><stop offset="0.99" stop-color="#423e9f"/></linearGradient><linearGradient id="Безымянный_градиент_17" x1="103.29" y1="429.57" x2="194.33" y2="408.65" gradientUnits="userSpaceOnUse"><stop offset="0.01" stop-color="#bbc0d9"/><stop offset="1" stop-color="#d6dbf8"/></linearGradient><linearGradient id="Безымянный_градиент_164" x1="493.65" y1="126.86" x2="563.32" y2="139.62" gradientTransform="translate(-401.62 408.18) rotate(-10.18)" gradientUnits="userSpaceOnUse"><stop offset="0" stop-color="#bac6d8"/><stop offset="0.99" stop-color="#d6dbf8"/></linearGradient><linearGradient id="Безымянный_градиент_5-2" x1="90.21" y1="433.39" x2="62.29" y2="405.95" xlink:href="#Безымянный_градиент_5"/><linearGradient id="Безымянный_градиент_5-3" x1="89.33" y1="456.44" x2="56.84" y2="445.13" xlink:href="#Безымянный_градиент_5"/><linearGradient id="Безымянный_градиент_5-4" x1="91.75" y1="433.32" x2="121.29" y2="410.07" xlink:href="#Безымянный_градиент_5"/><linearGradient id="Безымянный_градиент_5-5" x1="89.6" y1="456.48" x2="118.27" y2="442.75" xlink:href="#Безымянный_градиент_5"/><linearGradient id="Безымянный_градиент_5-6" x1="94.72" y1="478.06" x2="56.53" y2="473.5" xlink:href="#Безымянный_градиент_5"/><linearGradient id="Безымянный_градиент_5-7" x1="90.48" y1="480.74" x2="116.56" y2="464.8" xlink:href="#Безымянный_градиент_5"/><linearGradient id="Безымянный_градиент_18" x1="100.26" y1="373.18" x2="91.33" y2="409.68" gradientUnits="userSpaceOnUse"><stop offset="0.01" stop-color="#3d3c99"/><stop offset="1" stop-color="#1f1844"/></linearGradient><linearGradient id="Безымянный_градиент_33" x1="1995.66" y1="-194.78" x2="2007.45" y2="-194.78" gradientTransform="translate(-1191.1 1981.58) rotate(-45.37)" gradientUnits="userSpaceOnUse"><stop offset="0" stop-color="#e0e4eb"/><stop offset="0.99" stop-color="#f3f6fd"/></linearGradient><linearGradient id="Безымянный_градиент_33-2" x1="3108.42" y1="286.75" x2="3120.33" y2="286.75" gradientTransform="translate(-1151.45 3330.24) rotate(-72.22)" xlink:href="#Безымянный_градиент_33"/><linearGradient id="Безымянный_градиент_33-3" x1="-875.42" y1="2458.47" x2="-863.61" y2="2458.47" gradientTransform="matrix(0.63, 0.78, -0.78, 0.63, 2562.38, -455.94)" xlink:href="#Безымянный_градиент_33"/><linearGradient id="Безымянный_градиент_17-2" x1="106.74" y1="455.26" x2="119.04" y2="442.64" xlink:href="#Безымянный_градиент_17"/><linearGradient id="Безымянный_градиент_33-4" x1="-830.47" y1="2973.48" x2="-818.37" y2="2973.48" gradientTransform="matrix(0.5, 0.87, -0.77, 0.45, 2804.91, -166.88)" xlink:href="#Безымянный_градиент_33"/><linearGradient id="Безымянный_градиент_33-5" x1="608.37" y1="67.58" x2="625.74" y2="67.58" gradientTransform="translate(-519.54 527.86) rotate(-13.38)" xlink:href="#Безымянный_градиент_33"/><linearGradient id="Безымянный_градиент_33-6" x1="3815.97" y1="750.36" x2="3828.33" y2="750.36" gradientTransform="matrix(0.04, -0.93, 1, 0.04, -830.58, 4003.6)" xlink:href="#Безымянный_градиент_33"/><linearGradient id="Безымянный_градиент_17-3" x1="107.02" y1="475.08" x2="119.3" y2="461.46" xlink:href="#Безымянный_градиент_17"/><linearGradient id="Безымянный_градиент_33-7" x1="-665.86" y1="3636.28" x2="-652.48" y2="3636.28" gradientTransform="matrix(0.35, 0.94, -0.74, 0.28, 3032.33, 81.02)" xlink:href="#Безымянный_градиент_33"/><linearGradient id="Безымянный_градиент_11" x1="102.17" y1="372.65" x2="93.25" y2="409.15" gradientUnits="userSpaceOnUse"><stop offset="0" stop-color="#e6eaf1"/><stop offset="0.99" stop-color="#f3f6fd"/></linearGradient><linearGradient id="Безымянный_градиент_16" x1="65.68" y1="532.8" x2="133.7" y2="517.17" gradientUnits="userSpaceOnUse"><stop offset="0.11" stop-color="#8988d5"/><stop offset="0.56" stop-color="#9d9ce8"/><stop offset="1" stop-color="#a7a5ee"/></linearGradient><linearGradient id="Безымянный_градиент_170" x1="85.69" y1="215.89" x2="400.98" y2="215.89" gradientUnits="userSpaceOnUse"><stop offset="0.01" stop-color="#bbbfd9"/><stop offset="1" stop-color="#d6dbf8"/></linearGradient><linearGradient id="Безымянный_градиент_170-2" x1="413.78" y1="476.24" x2="440.19" y2="476.24" xlink:href="#Безымянный_градиент_170"/><linearGradient id="Безымянный_градиент_170-3" x1="511.65" y1="470.59" x2="538.51" y2="470.59" xlink:href="#Безымянный_градиент_170"/><linearGradient id="Безымянный_градиент_170-4" x1="475.19" y1="478.08" x2="500.12" y2="478.08" xlink:href="#Безымянный_градиент_170"/><linearGradient id="Безымянный_градиент_55" x1="476.61" y1="421.25" x2="476.61" y2="256.22" gradientUnits="userSpaceOnUse"><stop offset="0" stop-color="#d6dbf8"/><stop offset="0.99" stop-color="#bbbfd9"/></linearGradient><linearGradient id="Безымянный_градиент_170-5" x1="528.44" y1="342.29" x2="543.44" y2="343.79" xlink:href="#Безымянный_градиент_170"/><linearGradient id="Безымянный_градиент_157" x1="920.33" y1="89.99" x2="980.78" y2="89.99" gradientTransform="translate(-601.45 684.91) rotate(-15.29)" gradientUnits="userSpaceOnUse"><stop offset="0" stop-color="#a96e46"/><stop offset="1" stop-color="#ffd0b9"/></linearGradient><linearGradient id="Безымянный_градиент_157-2" x1="409.27" y1="510.81" x2="439.66" y2="510.81" gradientTransform="matrix(1, 0, 0, 1, 0, 0)" xlink:href="#Безымянный_градиент_157"/><linearGradient id="Безымянный_градиент_53" x1="473.76" y1="271.28" x2="452.8" y2="184.5" gradientUnits="userSpaceOnUse"><stop offset="0" stop-color="#464b8b"/><stop offset="0.22" stop-color="#393c76"/><stop offset="0.58" stop-color="#27275a"/><stop offset="0.78" stop-color="#201f4f"/></linearGradient><linearGradient id="Безымянный_градиент_50" x1="369.3" y1="407.76" x2="442.69" y2="407.76" gradientUnits="userSpaceOnUse"><stop offset="0" stop-color="#f7d6d2"/><stop offset="0.95" stop-color="#f7e5e3"/></linearGradient><linearGradient id="Безымянный_градиент_9" x1="388.53" y1="458.7" x2="434.85" y2="458.7" gradientUnits="userSpaceOnUse"><stop offset="0.05" stop-color="#f7e5e3"/><stop offset="1" stop-color="#f7d6d2"/></linearGradient><linearGradient id="Безымянный_градиент_18-2" x1="367.43" y1="311.77" x2="484.42" y2="295.67" xlink:href="#Безымянный_градиент_18"/><linearGradient id="Безымянный_градиент_271" x1="418.77" y1="305.99" x2="472.09" y2="298.65" gradientUnits="userSpaceOnUse"><stop offset="0.01" stop-color="#bbbfd9"/><stop offset="0.29" stop-color="#cacde2"/><stop offset="0.84" stop-color="#f2f3f8"/><stop offset="1" stop-color="#fff"/></linearGradient><linearGradient id="Безымянный_градиент_269" x1="428.16" y1="287.94" x2="456.34" y2="284.06" gradientUnits="userSpaceOnUse"><stop offset="0" stop-color="#fff"/><stop offset="0.16" stop-color="#f2f3f8"/><stop offset="0.71" stop-color="#cacde2"/><stop offset="0.99" stop-color="#bbbfd9"/></linearGradient><linearGradient id="Безымянный_градиент_9-2" x1="379.28" y1="413.01" x2="410.78" y2="432.01" xlink:href="#Безымянный_градиент_9"/><linearGradient id="Безымянный_градиент_271-2" x1="268.07" y1="314.79" x2="402.61" y2="314.79" xlink:href="#Безымянный_градиент_271"/><linearGradient id="Безымянный_градиент_269-2" x1="384.28" y1="341.42" x2="416.68" y2="299.05" xlink:href="#Безымянный_градиент_269"/><linearGradient id="Безымянный_градиент_62" x1="405.1" y1="341.58" x2="431.6" y2="332.08" gradientUnits="userSpaceOnUse"><stop offset="0" stop-color="#ffd0b9"/><stop offset="1" stop-color="#a96e46"/></linearGradient><linearGradient id="Безымянный_градиент_5-8" x1="489.12" y1="191.08" x2="482.1" y2="300.96" xlink:href="#Безымянный_градиент_5"/><linearGradient id="Безымянный_градиент_269-3" x1="448.55" y1="334.38" x2="476.63" y2="334.38" xlink:href="#Безымянный_градиент_269"/><linearGradient id="Безымянный_градиент_16-2" x1="563.58" y1="458.74" x2="581.61" y2="458.74" xlink:href="#Безымянный_градиент_16"/><linearGradient id="Безымянный_градиент_16-3" x1="255.25" y1="458.74" x2="272.08" y2="458.74" xlink:href="#Безымянный_градиент_16"/><linearGradient id="Безымянный_градиент_40" x1="418.33" y1="369.62" x2="418.33" y2="352.56" gradientUnits="userSpaceOnUse"><stop offset="0.11" stop-color="#343381"/><stop offset="0.56" stop-color="#3d3c99"/><stop offset="1" stop-color="#403da0"/></linearGradient><linearGradient id="Безымянный_градиент_18-3" x1="434.51" y1="276.85" x2="457.08" y2="276.85" xlink:href="#Безымянный_градиент_18"/><linearGradient id="Безымянный_градиент_157-3" x1="412.05" y1="238.07" x2="476.05" y2="208.44" gradientTransform="matrix(1, 0, 0, 1, 0, 0)" xlink:href="#Безымянный_градиент_157"/><linearGradient id="Безымянный_градиент_61" x1="477.09" y1="222.66" x2="454.46" y2="244.87" gradientUnits="userSpaceOnUse"><stop offset="0" stop-color="#ffd0b9" stop-opacity="0"/><stop offset="1" stop-color="#a96e46"/></linearGradient><linearGradient id="Безымянный_градиент_123" x1="481.36" y1="200.48" x2="477.87" y2="203.91" gradientUnits="userSpaceOnUse"><stop offset="0" stop-color="#753200"/><stop offset="1" stop-color="#a04400"/></linearGradient><linearGradient id="Безымянный_градиент_5-9" x1="459.08" y1="275.62" x2="501.62" y2="275.62" xlink:href="#Безымянный_градиент_5"/><linearGradient id="Безымянный_градиент_18-4" x1="459.53" y1="272.67" x2="500.12" y2="272.67" xlink:href="#Безымянный_градиент_18"/><linearGradient id="Безымянный_градиент_52" x1="412.52" y1="207.96" x2="525.27" y2="207.96" gradientUnits="userSpaceOnUse"><stop offset="0.22" stop-color="#201f4f"/><stop offset="0.42" stop-color="#27275a"/><stop offset="0.78" stop-color="#393c76"/><stop offset="1" stop-color="#464b8b"/></linearGradient><linearGradient id="Безымянный_градиент_5-10" x1="490.94" y1="314.33" x2="500.83" y2="314.33" xlink:href="#Безымянный_градиент_5"/><linearGradient id="Безымянный_градиент_18-5" x1="417.13" y1="316.17" x2="427.3" y2="314.77" xlink:href="#Безымянный_градиент_18"/></defs><title>1</title><g id="Слой_2" data-name="Слой 2"><path class="cls-1" d="M610.78,353.2C555.77,240.73,398.41,76,193.94,75.57c-213.36-.44-234,211.17-119,270S21.8,477.7,142,551.36c121.66,74.56,381.67,67.56,445.67,9.56S634.55,401.79,610.78,353.2Z"/><path class="cls-2" d="M92.22,499.38s27-30.06,24.14-41.91,13.89-26.24,14.22-43.5c.37-19.55-10.07-14.32-13.69-22.68-5.36-12.39,6.57-23.36-11.46-28.1-12.31-3.24-21,3.08-19.84-12.15S81.2,317,71.34,310.12c-14.09-9.78-42.76-10.54-33.1,9.16,10.15,20.71,1.2,54.81-1.16,64.15C12.08,482.13,92.22,499.38,92.22,499.38Z"/><path class="cls-3" d="M62.09,330.43c3.09,25.48,35,66.2,20.57,93.41s7.47,69.34,7.47,69.34"/><path class="cls-4" d="M174.06,442.46c-17.54,6.2,1.45,28.89-17.73,39.11S112.56,497,111.43,492c-.08-.33-1.11-3.62-2.2-8.43-.25-1.11-.5-2.31-.75-3.57-.06-.35-.13-.71-.2-1.07a97.08,97.08,0,0,1-1.45-11.61c0-.12,0-.24,0-.36-.09-1.55-.12-3.11-.09-4.66s.11-3,.27-4.43c.57-5.52,2.15-10.61,5.38-14.26a15.27,15.27,0,0,1,2.8-2.51c13.33-9.27,18.65-4.77,18.55-18.47-.18-23.48,6.51-27,14.38-24.67s14,3,15.17-5.71-6-47.36,11.92-47.29c31,.1,15.31,39.62,12.18,46-7.5,15.37,8.1,17.78,11.81,29S191.59,436.26,174.06,442.46Z"/><path class="cls-5" d="M108,525.74s-4.71-43.22,28.23-67.44c14.88-10.94,42.54-50,40-92.28"/><path class="cls-6" d="M61.82,405.53c4.09-6.94,33.51,21.68,28.36,28S57.92,412.14,61.82,405.53Z"/><path class="cls-7" d="M54.39,444.56c.59-8.08,36.1,3.54,34.28,11.52S53.83,452.26,54.39,444.56Z"/><path class="cls-8" d="M121.43,408.9c6.29,4.93-24.76,31.67-30.3,25.74S115.44,404.21,121.43,408.9Z"/><path class="cls-9" d="M118.17,442.6c5.29,6-24.7,21-29.2,14.23S113.14,436.91,118.17,442.6Z"/><path class="cls-10" d="M56.75,473.61c-1.55-7.42,37.59-3.15,37.93,4.49S58.23,480.68,56.75,473.61Z"/><path class="cls-11" d="M116.27,465c4.06,6.86-24,24-27.25,16.51S112.4,458.43,116.27,465Z"/><path class="cls-12" d="M100.79,372.17c7.9.58-2.32,40.39-10.13,38.55S93.27,371.62,100.79,372.17Z"/><path class="cls-13" d="M64.78,403.64c4.09-6.94,33.51,21.68,28.36,28S60.88,410.25,64.78,403.64Z"/><path class="cls-14" d="M56.76,442.91c.59-8.08,36.1,3.54,34.28,11.52S56.2,450.61,56.76,442.91Z"/><path class="cls-15" d="M122.63,407.12c6.29,4.93-24.76,31.67-30.3,25.74S116.63,402.43,122.63,407.12Z"/><path class="cls-16" d="M107.65,456.34c.55-5.42,2.06-10.42,5.17-14,3.75-.75,6.9-.6,8.28,1C124,446.6,116.07,452.72,107.65,456.34Z"/><path class="cls-17" d="M119.66,441.33c5.29,6-24.7,21-29.2,14.23S114.62,435.64,119.66,441.33Z"/><path class="cls-18" d="M92.78,401.32s.9,20.68-1.84,38.73,4.17,48.6,15.42,58.36"/><path class="cls-19" d="M56.75,472.19c-1.55-7.42,37.59-3.15,37.93,4.49S58.23,479.26,56.75,472.19Z"/><path class="cls-20" d="M109.08,478.07c-.06-.34-.12-.7-.19-1.05a97.42,97.42,0,0,1-1.39-11.4c0-.12,0-.24,0-.35,6.39-3.54,13.21-5.32,15-2.26C124.77,466.86,117,473.93,109.08,478.07Z"/><path class="cls-21" d="M121.06,460.07c4.06,6.86-24,24-27.25,16.51S117.19,453.53,121.06,460.07Z"/><path class="cls-22" d="M102.71,371.64c7.9.58-2.32,40.39-10.13,38.55S95.18,371.09,102.71,371.64Z"/><path class="cls-23" d="M109.49,562.67H85.16a21.91,21.91,0,0,1-21.71-19l-6-44.78a5.06,5.06,0,0,1,5-5.73h69.8a5.06,5.06,0,0,1,5,5.73l-6,44.78A21.91,21.91,0,0,1,109.49,562.67Z"/><rect class="cls-24" x="85.69" y="107.64" width="315.29" height="216.5" rx="11.45" ry="11.45"/><rect class="cls-25" x="94.66" y="116.93" width="297.35" height="197.93" rx="6.84" ry="6.84"/><path class="cls-26" d="M419.89,533.16a6.11,6.11,0,0,1-6-7l14.41-106.86,11.94,1.35L425.93,527.92C425.5,530.93,419.89,533.16,419.89,533.16Z"/><path class="cls-27" d="M526.44,525.31,511.65,416.43l10-4,16.73,110.8c.69,3.94-2.34,4.66-5.33,5.2S527.14,529.34,526.44,525.31Z"/><path class="cls-28" d="M487.83,538.36,475.19,414.23h12.34L500.1,537.48c.28,3.83-2.64,3.68-5.52,4.11C491.37,542.07,488.14,542.69,487.83,538.36Z"/><path class="cls-29" d="M533.62,399.78c-2.61,19.29-31,22-64,23.07-1,.5-37.46.28-54.44-5.44l.59-130.62c0-11,4.71-29.23,20.81-29.5,27-.45,77.15-4.57,96.78,1.5,4.49,16.12,7.76,33.92.28,80.48C529.35,365.91,534.88,390.52,533.62,399.78Z"/><path class="cls-30" d="M526.18,266.88c6,18,5.24,28.4-2.75,57.47-13.31,48.45,8.54,73.32-37.63,97.75,28-1.6,45.6-5.91,47.82-22.33,1.26-9.26-4.27-33.87,0-60.52,5.51-34.29,15.79-62.31,2.12-78.87C532,255.8,524.16,260.8,526.18,266.88Z"/><path class="cls-31" d="M360.92,542.42C359.34,544.27,343.3,570,343.3,570l-3.53-1.11s2.73-13.24,5-20.31c-2.58-.34-18.48,14.71-21.39,16.16S299.09,557.9,297,553.07s2-9.15,2-9.15,12.3,1.75,15.41,1c2.16,4.8,7,5.47,16.71,1.2S358,528.46,358,528.46C360.48,533.17,362.5,540.57,360.92,542.42Z"/><path class="cls-32" d="M365.51,502.73s-6.66,9.59-7.75,14.61.2,11.12.2,11.12-17.16,13.39-26.88,17.66-14.54,3.6-16.71-1.2a102.94,102.94,0,0,0,20.49-27.57c8.47-16.8,9.95-21.07,9.95-21.07Z"/><path class="cls-31" d="M445.46,518.33c-1.92,3.46-6,26.93-6,26.93h-3.66L433.49,526s-6.49,8.22-7.12,12.41a13.84,13.84,0,0,1-3.29,6.94s-22.55,1.64-25.56-.82-1.74-7.67-1.47-8.58S408.57,532,408.57,532l.7.19c12.88,3.35,17.43-7.3,20.58-11.42,2.85-3.75,8.6-16.8,9.82-19.57l.22-.53s4,4.48,5.58,7.86S447.37,514.86,445.46,518.33Z"/><path class="cls-33" d="M439.66,501.23c-1.22,2.77-7,15.82-9.82,19.57-3.14,4.12-7.69,14.77-20.58,11.42a55.16,55.16,0,0,0,4.86-15c1.19-7.86,2.56-12.33,1.19-19.45s18-9,18-9S434.33,498.19,439.66,501.23Z"/><path class="cls-34" d="M517.85,240.07c.44,5.26-2.59,9.77-8.64,10s-1.08,9.77-5.19,11.27-8.85-3.26-9.5,1.26-6.7,6.75-9.94,5.13-1.72-3.63-5.4-2.37a14.48,14.48,0,0,1-2.64.68c-2,.25-3.42-.39-6.22-2.19-3.89-2.51-21.57-7.45-26.36-4.76-4.31,2.42-1.62,7-4.22,10.48s-11.31.73-12.63-3.22c-1.68-5-8.07,0-11.67-4.5-5-6.27,5.41-9.95-5-14.1-5.45-2.18-8.92-7.39-7.23-14.93,1.48-6.64-5.52-7.29-3.24-13.28,2.36-6.18.11-7.62.75-12.13,1.13-8.08,4.45-4.77,7.91-7.78s-3.8-9.26,1.38-13,1.48-7.53,3.92-11c4.76-6.7,7-6.17,11.77-10.93s5.69,1.16,8.07,3.66v-.09c.23-7.18,1.53-7.7,6.05-11.94s3.69.58,10.39,1.58,8.63-8.6,12.95-10.85,7.13,4,11,5.26,1.07-1,6.91,4.23,4.62,9.28,9.38,9.52,10.16-3.26,14.26,2.51,0,11,3.67,14,7.56-.25,8.42,6.77-3.24,9.77,0,13.28-4.19,4.08-6.14,9.59-.67,6,.41,12.06S517.42,234.8,517.85,240.07Z"/><path class="cls-35" d="M442.69,373.31c-11-.72-43,.59-57.65,4.31-27.5,7-12.8,38-2.13,64.78,3.66-9,9.93-48.49,13.61-53.09C404,380,432.68,375,442.69,373.31Z"/><polygon class="cls-36" points="412.96 413.97 404.36 427.05 388.53 451.11 413.78 503.43 434.85 491.58 412.96 413.97"/><path class="cls-37" d="M454.65,249.09c-18.37,2.62-26.25,4-33.58,15.33-8.88,13.72-19,60.52-19,60.52l-8.43.91L398,343.49c-.26-1.47,4-8.58,23.76-17.57,1.58,10.61,3.86,25.77,3.86,26.24h16.61C441.31,317.13,440.26,281.63,454.65,249.09Z"/><path class="cls-38" d="M478,247.18l-19.66,1.55-16.57,72.55c-.11,10.28.16,20.6.42,30.88h17.62C450.4,316.37,466.17,280.46,478,247.18Z"/><path class="cls-39" d="M457.11,248.83l-1.27.1-1.18.17c-7.52,17-10.82,34.82-12.14,53-.46,6.38-.68,12.8-.74,19.23l16.57-72.55Z"/><path class="cls-40" d="M510.06,369.29l-80.48-1.07s-31.81,2.89-42.36,21.27c-1.36,2.37-9.81,20.46-9.81,20.46-13.86,32.67-38.1,92.62-40.83,99.93l23.83,11.39,51.27-88.18,13.06-14s40.27-2,62.14-9.66C520.71,397.59,510.06,369.29,510.06,369.29Z"/><path class="cls-41" d="M420.46,367.94s-3.62-.45-9.27-.82"/><path class="cls-42" d="M395.55,352.36H309.07l-15.85-68.14a5.7,5.7,0,0,1,5.56-7h80.84Z"/><path class="cls-43" d="M432.14,348.1l-.91,4.06H395.55l-18.68-71.39a2.84,2.84,0,0,1,2.74-3.55h0a2.84,2.84,0,0,1,2.76,2.17l11.3,46.47L398,343.49v0a1.45,1.45,0,0,0,0,.17l0,.06h30.6A3.59,3.59,0,0,1,432.14,348.1Z"/><circle class="cls-25" cx="340.58" cy="316.6" r="7.26"/><path class="cls-44" d="M419.52,326.55c-21.85,8.12-22,15.74-21.7,17.22h28.76a22.09,22.09,0,0,1,9.46-5.84l-2.57-14C427.41,324.61,422,325.51,419.52,326.55Z"/><path class="cls-45" d="M529.45,303.43c0-9.51-3.41-38.41-13.12-49-11.7-12.76-32.42-7.5-32.42-7.5l-7.58.54c-8.61,24.21-18.4,47.57-19.49,73.41a140.51,140.51,0,0,0-24.05,1l3.67,21.84,19.75,4.16s2.55.22,3.6,4.23h45a27.78,27.78,0,0,0,10.67-2c3.36-1.39,6.91-3.7,8.57-7.46C527,336.07,529.45,324.36,529.45,303.43Z"/><path class="cls-46" d="M473.42,327.47s9.14-.75,9.14,6.91-9.14,7.74-9.14,7.74"/><path class="cls-47" d="M474.49,352.16H451.75l-3.19-32.35a3,3,0,0,1,3.12-3.21h21.8a3,3,0,0,1,3.13,3.12Z"/><path class="cls-48" d="M576.91,551.06h-8.64c-2.59,0-4.69-1.41-4.69-3.16V366.43h18V547.9C581.61,549.65,579.51,551.06,576.91,551.06Z"/><path class="cls-49" d="M269.29,551.06H258c-1.54,0-2.79-.9-2.79-2V366.43h16.84V549C272.08,550.16,270.83,551.06,269.29,551.06Z"/><path class="cls-50" d="M255.53,352.19h325.6a10.45,10.45,0,0,1,10.45,10.45v8.47a0,0,0,0,1,0,0H245.08a0,0,0,0,1,0,0v-8.47A10.45,10.45,0,0,1,255.53,352.19Z"/><path class="cls-51" d="M457.08,244.36l-17.37,4.73-4.55,14.78a14.57,14.57,0,0,0,0,8.6l6.58,36.87S450.31,254.65,457.08,244.36Z"/><path class="cls-52" d="M479.18,245.8s-.13-5.46-2.34-22c0-.25-.06-.49-.09-.73a37.13,37.13,0,0,1-.37-4.74c.06-.1.12-.2.17-.3,4.79-8.54,4-14.15.66-16a5.17,5.17,0,0,0-1.4-.54h0s1.32-10.87-3.11-19.63c-5.87-11.6-22.59-11.73-32.79-8.76s-19.13,15.26-15.63,26.57c1.39,4.5,3.49,8.59,4,12.7s-1.17,10.93,2,17.61c4.52,9.58,14.87,12.13,21.2,12.1a20.2,20.2,0,0,0,2.41-.16l.29,1.72.61,4.16-.37,19a2.6,2.6,0,0,0,4.5,1.82C466.24,260.63,479.68,248.88,479.18,245.8Z"/><path class="cls-53" d="M476.85,223.76A36.82,36.82,0,0,1,454.4,245l-.23-1.4-.29-1.72C460.82,238,468.57,231,476.55,218c-.05.1-.11.2-.17.3a37.13,37.13,0,0,0,.37,4.74C476.79,223.26,476.81,223.51,476.85,223.76Z"/><path class="cls-54" d="M476.18,200.54s2.13-4,4.38-1.5,0,7.63,0,7.63Z"/><path class="cls-55" d="M492.66,247,483,248.5s-20.2,24.43-23.38,52.67c-.1.85-.52,2.47-.5,3.06,14.34-25.64,42.53-44.32,42.53-44.32Z"/><path class="cls-56" d="M491.17,244l-9.71,1.5s-18.72,25.39-21.89,53.63a13.51,13.51,0,0,0,0,2.19c9.87-27.9,40.53-44.4,40.53-44.4Z"/><polygon class="cls-57" points="490.94 243.68 483.57 241.9 481.13 245.56 491.17 244.01 490.94 243.68"/><path class="cls-58" d="M433.83,373.12l-28.18,11.09a30.29,30.29,0,0,0-16.9,16.61L340.58,511"/><path class="cls-59" d="M419.71,194.28a15.65,15.65,0,0,1,.16-2.33C419.77,193.43,419.71,194.28,419.71,194.28Z"/><path class="cls-60" d="M524.58,247.62c2.74,4.54-3.15,13-9.73,13.27s-5.64,4-10.11,5.5-9.63-3.27-10.33,1.26-6.83-1.52-10.26.32c-4.91,2.63-3.41-5.93-7.46-4.87-7.95,2.09-4-4-9.1-5.92-9.28-3.59,6.24-15.88,5.12-19.14-1.65-4.78-7.12-2.72-6.65-9s7.43-6.32,3.4-10c-3.4-3.09-4.74-6.8-1.45-9.83s.93-5.54-6.34-7.81-4.47-10.83-3.29-15.11-10.51,3.1-19,3.87a10.62,10.62,0,0,1-11-6.85s-6.74,10.35-3.61,19c-13-9.38-13.41-23-11.18-32.31,2.16-9,5.71-7.12,10.63-11.39s8.44-14.17,17.95-7.34c6.07,4.36,12-4.35,17.16-4.71,7-.49,7.75,1.65,12,2.92s6.81-3,13.16,2.26-.4,11.3,4.78,11.54,11-3.27,15.51,2.52,0,11.08,4,14.11,6.06,2,9.16,6.8c3.79,5.88-3.52,9.82,0,13.34s5.17,6.54,3.05,12.09,4.16,6.43,4.16,15.15C525.09,233.52,516.64,234.48,524.58,247.62Z"/><path class="cls-61" d="M500.83,329.66,497.25,299s-4.55,2.25-4.94,6.59-1.37,21.86-1.37,21.86Z"/><polygon class="cls-62" points="428.33 304.24 421.73 325.92 428.33 324.58 428.33 304.24"/></g></svg>