<svg xmlns="http://www.w3.org/2000/svg">
  <defs>
    <symbol id="email">
      <path d="M24 4.5v15c0 .85-.65 1.5-1.5 1.5H21V7.387l-9 6.463-9-6.463V21H1.5C.649 21 0 20.35 0 19.5v-15c0-.425.162-.8.431-1.068C.7 3.16 1.076 3 1.5 3H2l10 7.25L22 3h.5c.425 0 .8.162 1.069.432.27.268.431.643.431 1.068z"/>
    </symbol>
    <symbol id="github">
      <path d="M12 .297c-6.63 0-12 5.373-12 12 0 5.303 3.438 9.8 8.205 11.385.6.113.82-.258.82-.577 0-.285-.01-1.04-.015-2.04-3.338.724-4.042-1.61-4.042-1.61C4.422 18.07 3.633 17.7 3.633 17.7c-1.087-.744.084-.729.084-.729 1.205.084 1.838 1.236 1.838 1.236 1.07 1.835 2.809 1.305 3.495.998.108-.776.417-1.305.76-1.605-2.665-.3-5.466-1.332-5.466-5.93 0-1.31.465-2.38 1.235-3.22-.135-.303-.54-1.523.105-3.176 0 0 1.005-.322 3.3 1.23.96-.267 1.98-.399 3-.405 1.02.006 2.04.138 3 .405 2.28-1.552 3.285-1.23 3.285-1.23.645 1.653.24 2.873.12 3.176.765.84 1.23 1.91 1.23 3.22 0 4.61-2.805 5.625-5.475 5.92.42.36.81 1.096.81 2.22 0 1.606-.015 2.896-.015 3.286 0 .315.21.69.825.57C20.565 22.092 24 17.592 24 12.297c0-6.627-5.373-12-12-12"/>
    </symbol>
    <symbol id="linkedin">
      <path d="M20.447 20.452h-3.554v-5.569c0-1.328-.027-3.037-1.852-3.037-1.853 0-2.136 1.445-2.136 2.939v5.667H9.351V9h3.414v1.561h.046c.477-.9 1.637-1.85 3.37-1.85 3.601 0 4.267 2.37 4.267 5.455v6.286zM5.337 7.433c-1.144 0-2.063-.926-2.063-2.065 0-1.138.92-2.063 2.063-2.063 1.14 0 2.064.925 2.064 2.063 0 1.139-.925 2.065-2.064 2.065zm1.782 13.019H3.555V9h3.564v11.452zM22.225 0H1.771C.792 0 0 .774 0 1.729v20.542C0 23.227.792 24 1.771 24h20.451C23.2 24 24 23.227 24 22.271V1.729C24 .774 23.2 0 22.222 0h.003z"/>
    </symbol>
    <symbol id="twitter">
      <path d="M23.954 4.569c-.885.389-1.83.654-2.825.775 1.014-.611 1.794-1.574 2.163-2.723-.951.555-2.005.959-3.127 1.184-.896-.959-2.173-1.559-3.591-1.559-2.717 0-4.92 2.203-4.92 4.917 0 .39.045.765.127 1.124C7.691 8.094 4.066 6.13 1.64 3.161c-.427.722-.666 1.561-.666 2.475 0 1.71.87 3.213 2.188 4.096-.807-.026-1.566-.248-2.228-.616v.061c0 2.385 1.693 4.374 3.946 4.827-.413.111-.849.171-1.296.171-.314 0-.615-.03-.916-.086.631 1.953 2.445 3.377 4.604 3.417-1.68 1.319-3.809 2.105-6.102 2.105-.39 0-.779-.023-1.17-.067 2.189 1.394 4.768 2.209 7.557 2.209 9.054 0 13.999-7.496 13.999-13.986 0-.209 0-.42-.015-.63.961-.689 1.8-1.56 2.46-2.548l-.047-.02z"/>
    </symbol>


    <symbol id="js">
      <path d="M0 0h24v24H0V0zm22.034 18.276c-.175-1.095-.888-2.015-3.003-2.873-.736-.345-1.554-.585-1.797-1.14-.091-.33-.105-.51-.046-.705.15-.646.915-.84 1.515-.66.39.12.75.42.976.9 1.034-.676 1.034-.676 1.755-1.125-.27-.42-.404-.601-.586-.78-.63-.705-1.469-1.065-2.834-1.034l-.705.089c-.676.165-1.32.525-1.71 1.005-1.14 1.291-.811 3.541.569 4.471 1.365 1.02 3.361 1.244 3.616 2.205.24 1.17-.87 1.545-1.966 1.41-.811-.18-1.26-.586-1.755-1.336l-1.83 1.051c.21.48.45.689.81 1.109 1.74 1.756 6.09 1.666 6.871-1.004.029-.09.24-.705.074-1.65l.046.067zm-8.983-7.245h-2.248c0 1.938-.009 3.864-.009 5.805 0 1.232.063 2.363-.138 2.711-.33.689-1.18.601-1.566.48-.396-.196-.597-.466-.83-.855-.063-.105-.11-.196-.127-.196l-1.825 1.125c.305.63.75 1.172 1.324 1.517.855.51 2.004.675 3.207.405.783-.226 1.458-.691 1.811-1.411.51-.93.402-2.07.397-3.346.012-2.054 0-4.109 0-6.179l.004-.056z"/>
    </symbol>
    <symbol id="html">
      <path d="M1.5 0h21l-1.91 21.563L11.977 24l-8.564-2.438L1.5 0zm7.031 9.75l-.232-2.718 10.059.003.23-2.622L5.412 4.41l.698 8.01h9.126l-.326 3.426-2.91.804-2.955-.81-.188-2.11H6.248l.33 4.171L12 19.351l5.379-1.443.744-8.157H8.531z"/>
    </symbol>
    <symbol id="css">
      <path d="M1.5 0h21l-1.91 21.563L11.977 24l-8.565-2.438L1.5 0zm17.09 4.413L5.41 4.41l.213 2.622 10.125.002-.255 2.716h-6.64l.24 2.573h6.182l-.366 3.523-2.91.804-2.956-.81-.188-2.11h-2.61l.29 3.855L12 19.288l5.373-1.53L18.59 4.414z"/>
    </symbol>
    <symbol id="sql">
      <path d="M0 0h24v24H0V0zm22.034 18.276c-.175-1.095-.888-2.015-3.003-2.873-.736-.345-1.554-.585-1.797-1.14-.091-.33-.105-.51-.046-.705.15-.646.915-.84 1.515-.66.39.12.75.42.976.9 1.034-.676 1.034-.676 1.755-1.125-.27-.42-.404-.601-.586-.78-.63-.705-1.469-1.065-2.834-1.034l-.705.089c-.676.165-1.32.525-1.71 1.005-1.14 1.291-.811 3.541.569 4.471 1.365 1.02 3.361 1.244 3.616 2.205.24 1.17-.87 1.545-1.966 1.41-.811-.18-1.26-.586-1.755-1.336l-1.83 1.051c.21.48.45.689.81 1.109 1.74 1.756 6.09 1.666 6.871-1.004.029-.09.24-.705.074-1.65l.046.067zm-8.983-7.245h-2.248c0 1.938-.009 3.864-.009 5.805 0 1.232.063 2.363-.138 2.711-.33.689-1.18.601-1.566.48-.396-.196-.597-.466-.83-.855-.063-.105-.11-.196-.127-.196l-1.825 1.125c.305.63.75 1.172 1.324 1.517.855.51 2.004.675 3.207.405.783-.226 1.458-.691 1.811-1.411.51-.93.402-2.07.397-3.346.012-2.054 0-4.109 0-6.179l.004-.056z"/>
    </symbol>


    <symbol id="node">
      <path d="M11.998,24c-0.321,0-0.641-0.084-0.922-0.247l-2.936-1.737c-0.438-0.245-0.224-0.332-0.08-0.383 c0.585-0.203,0.703-0.25,1.328-0.604c0.065-0.037,0.151-0.023,0.218,0.017l2.256,1.339c0.082,0.045,0.197,0.045,0.272,0l8.795-5.076 c0.082-0.047,0.134-0.141,0.134-0.238V6.921c0-0.099-0.053-0.192-0.137-0.242l-8.791-5.072c-0.081-0.047-0.189-0.047-0.271,0 L3.075,6.68C2.99,6.729,2.936,6.825,2.936,6.921v10.15c0,0.097,0.054,0.189,0.139,0.235l2.409,1.392 c1.307,0.654,2.108-0.116,2.108-0.89V7.787c0-0.142,0.114-0.253,0.256-0.253h1.115c0.139,0,0.255,0.112,0.255,0.253v10.021 c0,1.745-0.95,2.745-2.604,2.745c-0.508,0-0.909,0-2.026-0.551L2.28,18.675c-0.57-0.329-0.922-0.945-0.922-1.604V6.921 c0-0.659,0.353-1.275,0.922-1.603l8.795-5.082c0.557-0.315,1.296-0.315,1.848,0l8.794,5.082c0.57,0.329,0.924,0.944,0.924,1.603 v10.15c0,0.659-0.354,1.273-0.924,1.604l-8.794,5.078C12.643,23.916,12.324,24,11.998,24z M19.099,13.993 c0-1.9-1.284-2.406-3.987-2.763c-2.731-0.361-3.009-0.548-3.009-1.187c0-0.528,0.235-1.233,2.258-1.233 c1.807,0,2.473,0.389,2.747,1.607c0.024,0.115,0.129,0.199,0.247,0.199h1.141c0.071,0,0.138-0.031,0.186-0.081 c0.048-0.054,0.074-0.123,0.067-0.196c-0.177-2.098-1.571-3.076-4.388-3.076c-2.508,0-4.004,1.058-4.004,2.833 c0,1.925,1.488,2.457,3.895,2.695c2.88,0.282,3.103,0.703,3.103,1.269c0,0.983-0.789,1.402-2.642,1.402 c-2.327,0-2.839-0.584-3.011-1.742c-0.02-0.124-0.126-0.215-0.253-0.215h-1.137c-0.141,0-0.254,0.112-0.254,0.253 c0,1.482,0.806,3.248,4.655,3.248C17.501,17.007,19.099,15.91,19.099,13.993z"/>
    </symbol>
    <symbol id="express">
      <path d="M40 41.753V18.708h1.25v3.625a4.74 4.74 0 0 0 .408-.511c1.044-2.166 3.246-3.533 5.65-3.506 2.85-.085 5.166.97 6.527 3.506a11.27 11.27 0 0 1 .272 10.331c-1.268 2.842-4.4 4.255-7.753 3.736a6.27 6.27 0 0 1-5.004-3.302v9.165zm1.25-14.893l.28 2.706c.494 3.08 2.315 4.9 5.174 5.242a5.88 5.88 0 0 0 6.459-3.736c1.112-2.65 1.03-5.65-.22-8.238a5.76 5.76 0 0 0-6.068-3.353 5.61 5.61 0 0 0-5.012 4.144 28.62 28.62 0 0 0-.613 3.234zm39.498 3.132a6.74 6.74 0 0 1-6.587 5.957c-5.242.264-7.702-3.217-8.093-7.234a11.59 11.59 0 0 1 1.021-6.383 7.12 7.12 0 0 1 7.412-3.974 6.81 6.81 0 0 1 6.042 5.183 34.97 34.97 0 0 1 .587 3.83H67.363c-.255 3.642 1.702 6.57 4.476 7.276 3.455.85 6.408-.647 7.48-3.932.238-.843.672-.962 1.438-.723zm-13.395-3.787h12.314c-.077-3.88-2.493-6.7-5.77-6.732-3.7-.06-6.383 2.647-6.544 6.732zm15.94 3.872H84.5a4.84 4.84 0 0 0 2.842 4.17 7.43 7.43 0 0 0 6.451-.17 2.9 2.9 0 0 0 1.702-2.851 2.63 2.63 0 0 0-1.77-2.63c-1.328-.494-2.74-.766-4.093-1.2a30 30 0 0 1-4.119-1.506c-2.18-1.064-2.315-5.208.153-6.52a8.69 8.69 0 0 1 8.306-.128c1.594.88 2.475 2.657 2.213 4.46H95.15c0-.05-.094-.094-.094-.145-.128-3.3-2.902-4.332-5.88-4.042-.9.1-1.753.372-2.553.774a2.55 2.55 0 0 0-1.48 2.553 2.55 2.55 0 0 0 1.702 2.4c1.3.477 2.68.783 4.025 1.157l3.25.85a3.84 3.84 0 0 1 2.638 3.464c.26 1.745-.63 3.46-2.204 4.255-2.842 1.608-7.523 1.183-9.608-.85-1.067-1.073-1.662-2.53-1.65-4.042zm28.78-6.374h-1.132c0-.153-.06-.3-.077-.417a3.7 3.7 0 0 0-3.013-3.557 7.43 7.43 0 0 0-4.774.23 2.9 2.9 0 0 0-2.102 2.766 2.67 2.67 0 0 0 2.042 2.689l5.174 1.328a14.39 14.39 0 0 1 1.65.502c1.65.6 2.77 2.132 2.82 3.883a4.25 4.25 0 0 1-2.6 4.04 9.47 9.47 0 0 1-7.659.077 5.31 5.31 0 0 1-3.2-5.157h1.106c.416 2.005 1.793 3.675 3.682 4.465s4.046.596 5.764-.516a3.04 3.04 0 0 0 1.634-2.842 2.63 2.63 0 0 0-1.796-2.613c-1.328-.494-2.74-.757-4.093-1.2a30.15 30.15 0 0 1-4.144-1.489c-2.128-1.047-2.298-5.157.128-6.468a8.57 8.57 0 0 1 8.442-.094 4.45 4.45 0 0 1 2.136 4.366zm-74.13 11.83a1.95 1.95 0 0 1-2.417-.919l-4.4-6.085-.638-.85-5.106 6.944a1.87 1.87 0 0 1-2.298.902l6.578-8.825-6.12-7.974c.908-.328 1.92.028 2.425.85l4.56 6.16 4.587-6.136a1.83 1.83 0 0 1 2.281-.851L35.02 21.9l-3.217 4.187a.85.85 0 0 0 0 1.268l6.127 8.178zm27.93-16.892v1.2a6.17 6.17 0 0 0-6.57 6.374q0 4.204 0 8.408v.953h-1.217v-16.86h1.2v3.455c1.472-2.52 3.744-3.455 6.595-3.523zM7.333 26.59l.536-2.647c1.472-5.234 7.472-7.412 11.6-4.17 2.417 1.898 3.02 4.587 2.902 7.617H8.754c-.22 5.412 3.685 8.68 8.68 7.012 1.646-.6 2.885-1.968 3.293-3.668.264-.85.7-.996 1.498-.75a6.91 6.91 0 0 1-3.302 5.047 8 8 0 0 1-9.319-1.191c-1.216-1.367-1.95-3.095-2.093-4.92 0-.3-.1-.58-.17-.85q-.01-.757-.01-1.48zm1.438-.366h12.314c-.077-3.923-2.553-6.706-5.855-6.732-3.676-.05-6.306 2.672-6.468 6.715z"/>
    </symbol>
    <symbol id="react">
      <path d="M12 9.861A2.139 2.139 0 1 0 12 14.139 2.139 2.139 0 1 0 12 9.861zM6.008 16.255l-.472-.12C2.018 15.246 0 13.737 0 11.996s2.018-3.25 5.536-4.139l.472-.119.133.468a23.53 23.53 0 0 0 1.363 3.578l.101.213-.101.213a23.307 23.307 0 0 0-1.363 3.578l-.133.467zM5.317 8.95c-2.674.751-4.315 1.9-4.315 3.046 0 1.145 1.641 2.294 4.315 3.046a24.95 24.95 0 0 1 1.182-3.046A24.752 24.752 0 0 1 5.317 8.95zM17.992 16.255l-.133-.469a23.357 23.357 0 0 0-1.364-3.577l-.101-.213.101-.213a23.42 23.42 0 0 0 1.364-3.578l.133-.468.473.119c3.517.889 5.535 2.398 5.535 4.14s-2.018 3.25-5.535 4.139l-.473.12zm-.491-4.259c.48 1.039.877 2.06 1.182 3.046 2.675-.752 4.315-1.901 4.315-3.046 0-1.146-1.641-2.294-4.315-3.046a24.788 24.788 0 0 1-1.182 3.046zM5.31 8.945l-.133-.467C4.188 4.992 4.488 2.494 6 1.622c1.483-.856 3.864.155 6.359 2.716l.34.349-.34.349a23.552 23.552 0 0 0-2.422 2.967l-.135.193-.235.02a23.657 23.657 0 0 0-3.785.61l-.472.119zm1.896-6.63c-.268 0-.505.058-.705.173-.994.573-1.17 2.565-.485 5.253a25.122 25.122 0 0 1 3.233-.501 24.847 24.847 0 0 1 2.052-2.544c-1.56-1.519-3.037-2.381-4.095-2.381zM16.795 22.677c-.001 0-.001 0 0 0-1.425 0-3.255-1.073-5.154-3.023l-.34-.349.34-.349a23.53 23.53 0 0 0 2.421-2.968l.135-.193.234-.02a23.63 23.63 0 0 0 3.787-.609l.472-.119.134.468c.987 3.484.688 5.983-.824 6.854a2.38 2.38 0 0 1-1.205.308zm-4.096-3.381c1.56 1.519 3.037 2.381 4.095 2.381h.001c.267 0 .505-.058.704-.173.994-.573 1.171-2.566.485-5.254a25.02 25.02 0 0 1-3.234.501 24.674 24.674 0 0 1-2.051 2.545zM18.69 8.945l-.472-.119a23.479 23.479 0 0 0-3.787-.61l-.234-.02-.135-.193a23.414 23.414 0 0 0-2.421-2.967l-.34-.349.34-.349C14.135 1.778 16.515.767 18 1.622c1.512.872 1.812 3.37.824 6.855l-.134.468zM14.75 7.24c1.142.104 2.227.273 3.234.501.686-2.688.509-4.68-.485-5.253-.988-.571-2.845.304-4.8 2.208A24.849 24.849 0 0 1 14.75 7.24zM7.206 22.677A2.38 2.38 0 0 1 6 22.369c-1.512-.871-1.812-3.369-.823-6.854l.132-.468.472.119c1.155.291 2.429.496 3.785.609l.235.02.134.193a23.596 23.596 0 0 0 2.422 2.968l.34.349-.34.349c-1.898 1.95-3.728 3.023-5.151 3.023zm-1.19-6.427c-.686 2.688-.509 4.681.485 5.254.987.563 2.843-.305 4.8-2.208a24.998 24.998 0 0 1-2.052-2.545 24.976 24.976 0 0 1-3.233-.501zM12 16.878c-.823 0-1.669-.036-2.516-.106l-.235-.02-.135-.193a30.388 30.388 0 0 1-1.35-2.122 30.354 30.354 0 0 1-1.166-2.228l-.1-.213.1-.213a30.3 30.3 0 0 1 1.166-2.228c.414-.716.869-1.43 1.35-2.122l.135-.193.235-.02a29.785 29.785 0 0 1 5.033 0l.234.02.134.193a30.006 30.006 0 0 1 2.517 4.35l.101.213-.101.213a29.6 29.6 0 0 1-2.517 4.35l-.134.193-.234.02c-.847.07-1.694.106-2.517.106zm-2.197-1.084c1.48.111 2.914.111 4.395 0a29.006 29.006 0 0 0 2.196-3.798 28.585 28.585 0 0 0-2.197-3.798 29.031 29.031 0 0 0-4.394 0 28.477 28.477 0 0 0-2.197 3.798 29.114 29.114 0 0 0 2.197 3.798z"/>
    </symbol>


        
    <symbol id="psql">
      <path d="M17.128 0a10.134 10.134 0 0 0-2.755.403l-.063.02A10.922 10.922 0 0 0 12.6.258C11.422.238 10.41.524 9.594 1 8.79.721 7.122.24 5.364.336 4.14.403 2.804.775 1.814 1.82.827 2.865.305 4.482.415 6.682c.03.607.203 1.597.49 2.879s.69 2.783 1.193 4.152c.503 1.37 1.054 2.6 1.915 3.436.43.419 1.022.771 1.72.742.49-.02.933-.235 1.315-.552.186.245.385.352.566.451.228.125.45.21.68.266.413.103 1.12.241 1.948.1.282-.047.579-.139.875-.27.011.33.024.653.037.98.041 1.036.067 1.993.378 2.832.05.137.187.843.727 1.466.54.624 1.598 1.013 2.803.755.85-.182 1.931-.51 2.649-1.532.71-1.01 1.03-2.459 1.093-4.809.016-.127.035-.235.055-.336l.169.015h.02c.907.041 1.891-.088 2.713-.47.728-.337 1.279-.678 1.68-1.283.1-.15.21-.331.24-.643s-.149-.8-.446-1.025c-.595-.452-.969-.28-1.37-.197a6.27 6.27 0 0 1-1.202.146c1.156-1.947 1.985-4.015 2.458-5.845.28-1.08.437-2.076.45-2.947.013-.871-.058-1.642-.58-2.309C21.36.6 19.067.024 17.293.004c-.055-.001-.11-.002-.165-.001zm-.047.64c1.678-.016 3.822.455 5.361 2.422.346.442.449 1.088.437 1.884-.013.795-.16 1.747-.429 2.79-.522 2.02-1.508 4.375-2.897 6.488a.756.756 0 0 0 .158.086c.29.12.951.223 2.27-.048.332-.07.575-.117.827.075a.52.52 0 0 1 .183.425.704.704 0 0 1-.13.336c-.255.383-.758.746-1.403 1.045-.571.266-1.39.405-2.116.413-.364.004-.7-.024-.985-.113l-.018-.007c-.11 1.06-.363 3.153-.528 4.108-.132.77-.363 1.382-.804 1.84-.44.458-1.063.734-1.901.914-1.038.223-1.795-.017-2.283-.428-.487-.41-.71-.954-.844-1.287-.092-.23-.14-.528-.186-.926-.046-.398-.08-.885-.103-1.434a51.426 51.426 0 0 1-.03-2.523 3.061 3.061 0 0 1-1.552.76c-.689.117-1.304.002-1.671-.09a2.276 2.276 0 0 1-.52-.201c-.17-.091-.332-.194-.44-.397a.56.56 0 0 1-.057-.381.61.61 0 0 1 .218-.331c.198-.161.46-.251.855-.333.719-.148.97-.249 1.123-.37.13-.104.277-.314.537-.622a1.16 1.16 0 0 1-.003-.041 2.96 2.96 0 0 1-1.33-.358c-.15.158-.916.968-1.85 2.092-.393.47-.827.74-1.285.759-.458.02-.872-.211-1.224-.552-.703-.683-1.264-1.858-1.753-3.186-.488-1.328-.885-2.807-1.167-4.067-.283-1.26-.45-2.276-.474-2.766-.105-2.082.382-3.485 1.217-4.37.836-.885 1.982-1.22 3.099-1.284 2.005-.115 3.909.584 4.294.734.742-.504 1.698-.818 2.892-.798a7.39 7.39 0 0 1 1.681.218l.02-.009a6.854 6.854 0 0 1 .739-.214A9.626 9.626 0 0 1 17.08.642zm.152.67h-.146a8.74 8.74 0 0 0-1.704.192c1.246.552 2.187 1.402 2.85 2.25a8.44 8.44 0 0 1 1.132 1.92c.11.264.184.487.226.66.021.087.035.16.04.236.002.038.004.077-.012.144 0 .003-.005.01-.006.013.03.876-.187 1.47-.213 2.306-.02.606.135 1.318.173 2.095.036.73-.052 1.532-.526 2.319.04.048.076.096.114.144 1.254-1.975 2.158-4.16 2.64-6.023.258-1.003.395-1.912.407-2.632.01-.72-.124-1.242-.295-1.46-1.342-1.716-3.158-2.153-4.68-2.165zm-4.79.256c-1.182.003-2.03.36-2.673.895-.663.553-1.108 1.31-1.4 2.085-.347.92-.466 1.81-.513 2.414l.013-.008c.357-.2.826-.4 1.328-.516.502-.115 1.043-.151 1.533.039s.895.637 1.042 1.315c.704 3.257-.219 4.468-.559 5.382a9.61 9.61 0 0 0-.331 1.013c.043-.01.086-.022.129-.026.24-.02.428.06.54.108.342.142.577.44.704.78.033.089.057.185.071.284a.336.336 0 0 1 .02.127 55.14 55.14 0 0 0 .013 3.738c.023.538.057 1.012.1 1.386.043.373.104.657.143.753.128.32.315.739.653 1.024.338.284.823.474 1.709.284.768-.165 1.242-.394 1.559-.723.316-.329.505-.787.626-1.488.181-1.05.545-4.095.589-4.668-.02-.432.044-.764.182-1.017.142-.26.362-.419.552-.505.095-.043.184-.072.257-.093a5.956 5.956 0 0 0-.243-.325 4.456 4.456 0 0 1-.666-1.099 8.296 8.296 0 0 0-.257-.483c-.133-.24-.301-.54-.477-.877-.352-.675-.735-1.493-.934-2.29-.198-.796-.227-1.62.281-2.201.45-.516 1.24-.73 2.426-.61-.035-.105-.056-.192-.115-.332a7.817 7.817 0 0 0-1.041-1.764c-1.005-1.285-2.632-2.559-5.146-2.6h-.115zm-6.642.052c-.127 0-.254.004-.38.011-1.01.058-1.965.351-2.648 1.075-.684.724-1.134 1.911-1.036 3.876.019.372.181 1.414.459 2.652.277 1.238.67 2.695 1.142 3.982.473 1.287 1.046 2.407 1.59 2.937.274.265.512.372.728.363.217-.01.478-.135.797-.518a43.244 43.244 0 0 1 1.81-2.048 3.497 3.497 0 0 1-1.167-3.15c.103-.739.117-1.43.105-1.976-.012-.532-.05-.886-.05-1.107a.336.336 0 0 1 0-.019v-.005l-.001-.006v-.001a9.893 9.893 0 0 1 .592-3.376c.28-.744.697-1.5 1.322-2.112-.614-.202-1.704-.51-2.884-.568a7.603 7.603 0 0 0-.38-.01zM18.199 6.9c-.679.009-1.06.184-1.26.413-.283.325-.31.895-.134 1.597.175.703.537 1.489.877 2.142.17.327.335.621.468.86.134.24.232.41.292.555.055.134.116.252.178.362.263-.555.31-1.1.283-1.668-.035-.703-.198-1.422-.174-2.15.027-.851.195-1.405.21-2.063a5.793 5.793 0 0 0-.74-.048zm-8.234.115a2.82 2.82 0 0 0-.616.074 4.665 4.665 0 0 0-1.153.449 2.417 2.417 0 0 0-.349.228l-.022.02c.006.146.035.5.047 1.021.012.57-.002 1.297-.112 2.084-.239 1.71 1.002 3.126 2.46 3.128.085-.351.225-.707.365-1.082.406-1.094 1.205-1.892.532-5.006-.11-.51-.328-.716-.628-.832a1.474 1.474 0 0 0-.524-.084zm7.917.204h.05c.066.002.127.009.18.022.054.012.1.03.138.055a.164.164 0 0 1 .075.11l-.001.008h.001-.001a.24.24 0 0 1-.035.135.668.668 0 0 1-.11.15.677.677 0 0 1-.386.212.59.59 0 0 1-.41-.103.608.608 0 0 1-.13-.118.26.26 0 0 1-.063-.127.17.17 0 0 1 .042-.128.384.384 0 0 1 .117-.09c.096-.054.226-.094.373-.116.055-.008.109-.012.16-.013zm-7.82.168c.053 0 .109.005.166.013.153.021.289.062.393.122a.446.446 0 0 1 .133.106.223.223 0 0 1 .054.17.302.302 0 0 1-.075.154.649.649 0 0 1-.143.13.64.64 0 0 1-.448.113.728.728 0 0 1-.42-.228.71.71 0 0 1-.118-.164.28.28 0 0 1-.041-.177c.015-.108.104-.164.191-.195a.866.866 0 0 1 .307-.04zm9.06 7.343l-.003.001c-.147.053-.268.075-.37.12a.452.452 0 0 0-.239.214c-.063.115-.117.319-.101.666a.51.51 0 0 0 .148.07c.171.052.458.086.778.081.638-.007 1.423-.156 1.84-.35a3.95 3.95 0 0 0 .943-.615h-.001c-1.393.288-2.18.211-2.663.012a1.315 1.315 0 0 1-.332-.2zm-8.031.094h-.021c-.053.005-.13.023-.279.188-.348.39-.47.635-.757.864-.287.228-.66.35-1.405.503-.236.048-.371.101-.461.144.029.024.026.03.07.053.109.06.249.113.362.142.32.08.846.173 1.395.08.549-.094 1.12-.357 1.607-1.04.084-.118.093-.292.024-.479-.07-.187-.223-.348-.331-.393a.653.653 0 0 0-.204-.06z"/>
    </symbol>



    <symbol id="git">
      <path d="M23.546 10.93L13.067.452c-.604-.603-1.582-.603-2.188 0L8.708 2.627l2.76 2.76c.645-.215 1.379-.07 1.889.441.516.515.658 1.258.438 1.9l2.658 2.66c.645-.223 1.387-.078 1.9.435.721.72.721 1.884 0 2.604-.719.719-1.881.719-2.6 0-.539-.541-.674-1.337-.404-1.996L12.86 8.955v6.525c.176.086.342.203.488.348.713.721.713 1.883 0 2.6-.719.721-1.889.721-2.609 0-.719-.719-.719-1.879 0-2.598.182-.18.387-.316.605-.406V8.835c-.217-.091-.424-.222-.6-.401-.545-.545-.676-1.342-.396-2.009L7.636 3.7.45 10.881c-.6.605-.6 1.584 0 2.189l10.48 10.477c.604.604 1.582.604 2.186 0l10.43-10.43c.605-.603.605-1.582 0-2.187"/>
    </symbol>
    <symbol id="husky">
      <path d="M23.546 10.93L13.067.452c-.604-.603-1.582-.603-2.188 0L8.708 2.627l2.76 2.76c.645-.215 1.379-.07 1.889.441.516.515.658 1.258.438 1.9l2.658 2.66c.645-.223 1.387-.078 1.9.435.721.72.721 1.884 0 2.604-.719.719-1.881.719-2.6 0-.539-.541-.674-1.337-.404-1.996L12.86 8.955v6.525c.176.086.342.203.488.348.713.721.713 1.883 0 2.6-.719.721-1.889.721-2.609 0-.719-.719-.719-1.879 0-2.598.182-.18.387-.316.605-.406V8.835c-.217-.091-.424-.222-.6-.401-.545-.545-.676-1.342-.396-2.009L7.636 3.7.45 10.881c-.6.605-.6 1.584 0 2.189l10.48 10.477c.604.604 1.582.604 2.186 0l10.43-10.43c.605-.603.605-1.582 0-2.187"/>
    </symbol>
    <symbol id="postman">
      <path d="M13.527.099C6.955-.744.942 3.9.099 10.473c-.843 6.572 3.8 12.584 10.373 13.428 6.573.843 12.587-3.801 13.428-10.374C24.744 6.955 20.101.943 13.527.099zm2.471 7.485a.855.855 0 0 0-.593.25l-4.453 4.453-.307-.307-.643-.643c4.389-4.376 5.18-4.418 5.996-3.753zm-4.863 4.861l4.44-4.44a.62.62 0 1 1 .847.903l-4.699 4.125-.588-.588zm.33.694l-1.1.238a.06.06 0 0 1-.067-.032.06.06 0 0 1 .01-.073l.645-.645.512.512zm-2.803-.459l1.172-1.172.879.878-1.979.426a.074.074 0 0 1-.085-.039.072.072 0 0 1 .013-.093zm-3.646 6.058a.076.076 0 0 1-.069-.083.077.077 0 0 1 .022-.046h.002l.946-.946 1.222 1.222-2.123-.147zm2.425-1.256a.228.228 0 0 0-.117.256l.203.865a.125.125 0 0 1-.211.117h-.003l-.934-.934-.294-.295 3.762-3.758 1.82-.393.874.874c-1.255 1.102-2.971 2.201-5.1 3.268zm5.279-3.428h-.002l-.839-.839 4.699-4.125a.952.952 0 0 0 .119-.127c-.148 1.345-2.029 3.245-3.977 5.091zm3.657-6.46l-.003-.002a1.822 1.822 0 0 1 2.459-2.684l-1.61 1.613a.119.119 0 0 0 0 .169l1.247 1.247a1.817 1.817 0 0 1-2.093-.343zm2.578 0a1.714 1.714 0 0 1-.271.218h-.001l-1.207-1.207 1.533-1.533c.661.72.637 1.832-.054 2.522zM18.855 6.05a.143.143 0 0 0-.053.157.416.416 0 0 1-.053.45.14.14 0 0 0 .023.197.141.141 0 0 0 .084.03.14.14 0 0 0 .106-.05.691.691 0 0 0 .087-.751.138.138 0 0 0-.194-.033z"/>
    </symbol>
    <symbol id="netlify">
      <path d="M16.934 8.519a1.044 1.044 0 0 1 .303.23l2.349-1.045-2.192-2.171-.491 2.954zM12.06 6.546a1.305 1.305 0 0 1 .209.574l3.497 1.482a1.044 1.044 0 0 1 .355-.177l.574-3.55-2.13-2.234-2.505 3.852v.053zm11.933 5.491l-3.748-3.748-2.548 1.044 6.264 2.662s.053.042.032.042zm-.627.606l-6.013-2.569a1.044 1.044 0 0 1-.7.407l-.647 3.957a1.044 1.044 0 0 1 .303.731l3.633.762 3.33-3.31v-.062zM15.4 9.25L12.132 7.86a1.2 1.2 0 0 1-1.044.543h-.199L8.185 12.58l7.225-3.132v.01a.887.887 0 0 1 0-.167.052.052 0 0 0-.01-.041zm3.967 7.308l-3.195-.658a1.096 1.096 0 0 1-.46.344l-.761 4.72 4.437-4.396s-.01.02-.021.02zm-4.469-.324a1.044 1.044 0 0 1-.616-.71l-5.95-1.222-.084.136 5.398 7.81.323-.324.919-5.67s.031.022.01.011zm-6.441-2.652l5.878 1.211a1.044 1.044 0 0 1 .824-.522l.637-3.894-.135-.115-7.308 3.132a1.817 1.817 0 0 1 .104.188zm-2.464.981l-.125-.125-2.537 1.044 1.232 1.222 1.399-2.172zm1.67.397a1.368 1.368 0 0 1-.563.125 1.389 1.389 0 0 1-.45-.073l-1.544 2.245 6.765 6.702 1.19-1.18zm-.95-2.641a1.702 1.702 0 0 1 .314 0 1.378 1.378 0 0 1 .344 0l2.735-4.25a1.19 1.19 0 0 1-.334-.824 1.242 1.242 0 0 1 0-.271l-3.32-1.535-2.672 2.6zm.303-7.402l3.237 1.378a1.242 1.242 0 0 1 .835-.282 1.357 1.357 0 0 1 .397.063l2.526-3.947L11.923.041 7.016 4.854s-.01.052 0 .063zm-1.21 8.164a1.566 1.566 0 0 1 .24-.334L3.278 8.613 0 11.797l5.804 1.284zm-.262.7L.533 12.735l2.203 2.235 2.777-1.18z"/>
    </symbol>
    <symbol id="heroku">
      <path d="M20.61 0H3.39C2.189 0 1.23.96 1.23 2.16v19.681c0 1.198.959 2.159 2.16 2.159h17.22c1.2 0 2.159-.961 2.159-2.159V2.16C22.77.96 21.811 0 20.61 0zm.96 21.841c0 .539-.421.96-.96.96H3.39c-.54 0-.96-.421-.96-.96V2.16c0-.54.42-.961.96-.961h17.22c.539 0 .96.421.96.961v19.681zM6.63 20.399L9.33 18l-2.7-2.4v4.799zm9.72-9.719c-.479-.48-1.379-1.08-2.879-1.08-1.621 0-3.301.421-4.5.84V3.6h-2.4v10.38l1.68-.78s2.76-1.26 5.16-1.26c1.2 0 1.5.66 1.5 1.26v7.2h2.4v-7.2c.059-.179.059-1.501-.961-2.52zM13.17 7.5h2.4c1.08-1.26 1.62-2.521 1.8-3.9h-2.399c-.241 1.379-.841 2.64-1.801 3.9z"/>
    </symbol>


    <symbol id="cypress">
      <path d="M11.998 0C5.366 0 0 5.367 0 12a11.992 11.992 0 0 0 12 12c6.633 0 12-5.367 12-12-.001-6.633-5.412-12-12.002-12zM6.37 14.575c.392.523.916.742 1.657.742.35 0 .699-.044 1.004-.175.306-.13.655-.306 1.09-.567l1.223 1.745c-1.003.83-2.138 1.222-3.447 1.222-1.048 0-1.92-.218-2.705-.654a4.393 4.393 0 0 1-1.746-1.92c-.392-.83-.611-1.79-.611-2.925 0-1.09.219-2.094.61-2.923a4.623 4.623 0 0 1 1.748-2.007c.741-.48 1.657-.698 2.661-.698.699 0 1.353.087 1.877.305a5.64 5.64 0 0 1 1.614.96l-1.222 1.658A4.786 4.786 0 0 0 9.12 8.77c-.305-.13-.698-.174-1.048-.174-1.483 0-2.225 1.134-2.225 3.446-.043 1.18.175 2.008.524 2.532H6.37zm12 2.705c-.436 1.353-1.091 2.357-2.008 3.098-.916.743-2.138 1.135-3.665 1.266l-.305-2.05c1.003-.132 1.745-.35 2.225-.7.174-.13.524-.523.524-.523L11.519 6.764h3.01l2.095 8.683 2.226-8.683h2.923L18.37 17.28z"/>
    </symbol>
    <symbol id="jest">
      <path d="M22.251 11.82a3.117 3.117 0 0 0-2.328-3.01L22.911 0H8.104L11.1 8.838a3.116 3.116 0 0 0-2.244 2.988c0 1.043.52 1.967 1.313 2.536a8.279 8.279 0 0 1-1.084 1.244 8.14 8.14 0 0 1-2.55 1.647c-.834-.563-1.195-1.556-.869-2.446a3.11 3.11 0 0 0-.91-6.08 3.117 3.117 0 0 0-3.113 3.113c0 .848.347 1.626.903 2.182-.048.097-.097.195-.146.299-.465.959-.993 2.043-1.195 3.259-.403 2.432.257 4.384 1.849 5.489A5.093 5.093 0 0 0 5.999 24c1.827 0 3.682-.917 5.475-1.807 1.279-.632 2.599-1.292 3.898-1.612.48-.118.98-.187 1.508-.264 1.07-.153 2.175-.312 3.168-.89a4.482 4.482 0 0 0 2.182-3.091c.174-.994 0-1.994-.444-2.87.298-.48.465-1.042.465-1.647zm-1.355 0c0 .965-.785 1.75-1.75 1.75a1.753 1.753 0 0 1-1.085-3.126l.007-.007c.056-.042.118-.084.18-.125 0 0 .008 0 .008-.007.028-.014.055-.035.083-.05.007 0 .014-.006.021-.006.028-.014.063-.028.097-.042.035-.014.07-.027.098-.041.007 0 .013-.007.02-.007.028-.007.056-.021.084-.028.007 0 .02-.007.028-.007.034-.007.062-.014.097-.02h.007l.104-.022c.007 0 .02 0 .028-.007.028 0 .055-.007.083-.007h.035c.035 0 .07-.007.111-.007h.09c.028 0 .05 0 .077.007h.014c.055.007.111.014.167.028a1.766 1.766 0 0 1 1.396 1.723zM10.043 1.39h10.93l-2.509 7.4c-.104.02-.208.055-.312.09l-2.64-5.385-2.648 5.35c-.104-.034-.216-.055-.327-.076l-2.494-7.38zm4.968 9.825a3.083 3.083 0 0 0-.938-1.668l1.438-2.904 1.452 2.967c-.43.43-.743.98-.868 1.605H15.01zm-3.481-1.098c.034-.007.062-.014.097-.02h.02c.029-.008.056-.008.084-.015h.028c.028 0 .049-.007.076-.007h.271c.028 0 .049.007.07.007.014 0 .02 0 .035.007.027.007.048.007.076.014.007 0 .014 0 .028.007l.097.02h.007c.028.008.056.015.083.029.007 0 .014.007.028.007.021.007.049.014.07.027.007 0 .014.007.02.007.028.014.056.021.084.035h.007a.374.374 0 0 1 .09.049h.007c.028.014.056.034.084.048.007 0 .007.007.013.007.028.014.05.035.077.049l.007.007c.083.062.16.132.236.201l.007.007a1.747 1.747 0 0 1 .48 1.209 1.752 1.752 0 0 1-3.502 0 1.742 1.742 0 0 1 1.32-1.695zm-6.838-.049c.966 0 1.751.786 1.751 1.751s-.785 1.751-1.75 1.751-1.752-.785-1.752-1.75.786-1.752 1.751-1.752zm16.163 6.025a3.07 3.07 0 0 1-1.508 2.133c-.758.438-1.689.577-2.669.716a17.29 17.29 0 0 0-1.64.291c-1.445.355-2.834 1.05-4.182 1.717-1.724.854-3.35 1.66-4.857 1.66a3.645 3.645 0 0 1-2.154-.688c-1.529-1.056-1.453-3.036-1.272-4.12.167-1.015.632-1.966 1.077-2.877.028-.055.049-.104.077-.16.152.056.312.098.479.126-.264 1.473.486 2.994 1.946 3.745l.264.139.284-.104c1.216-.431 2.342-1.133 3.336-2.071a9.334 9.334 0 0 0 1.445-1.716c.16.027.32.034.48.034a3.117 3.117 0 0 0 3.008-2.327h1.167a3.109 3.109 0 0 0 3.01 2.327c.576 0 1.11-.16 1.57-.43.18.52.236 1.063.139 1.605z"/>
    </symbol>
    <symbol id="travis">
      <path d="M20.61 0H3.39C2.189 0 1.23.96 1.23 2.16v19.681c0 1.198.959 2.159 2.16 2.159h17.22c1.2 0 2.159-.961 2.159-2.159V2.16C22.77.96 21.811 0 20.61 0zm.96 21.841c0 .539-.421.96-.96.96H3.39c-.54 0-.96-.421-.96-.96V2.16c0-.54.42-.961.96-.961h17.22c.539 0 .96.421.96.961v19.681zM6.63 20.399L9.33 18l-2.7-2.4v4.799zm9.72-9.719c-.479-.48-1.379-1.08-2.879-1.08-1.621 0-3.301.421-4.5.84V3.6h-2.4v10.38l1.68-.78s2.76-1.26 5.16-1.26c1.2 0 1.5.66 1.5 1.26v7.2h2.4v-7.2c.059-.179.059-1.501-.961-2.52zM13.17 7.5h2.4c1.08-1.26 1.62-2.521 1.8-3.9h-2.399c-.241 1.379-.841 2.64-1.801 3.9z"/>
    </symbol>
    <symbol id="codecov">
      <path d="M12.007.48C5.391.485.005 5.831 0 12.399v.03l2.042 1.191.028-.019a5.821 5.821 0 0 1 3.308-1.02c.371 0 .734.034 1.086.1l-.036-.006a5.69 5.69 0 0 1 2.874 1.431l-.004-.003.35.326.198-.434c.192-.42.414-.814.66-1.173.099-.144.208-.29.332-.446l.205-.257-.252-.211a8.33 8.33 0 0 0-3.836-1.807l-.052-.008a8.566 8.566 0 0 0-4.081.251l.061-.016c.971-4.257 4.714-7.224 9.133-7.227a9.31 9.31 0 0 1 6.601 2.713 9.197 9.197 0 0 1 2.508 4.499 8.386 8.386 0 0 0-2.498-.379h-.154c-.356.006-.7.033-1.037.078l.045-.005-.042.006a8.104 8.104 0 0 0-.39.06c-.057.01-.114.022-.17.033a8.103 8.103 0 0 0-.392.089l-.138.035a9.21 9.21 0 0 0-.483.144l-.029.01c-.355.12-.709.268-1.051.439l-.027.014c-.152.076-.305.16-.469.256l-.036.022a8.217 8.217 0 0 0-2.108 1.801l-.011.013-.075.092a8.346 8.346 0 0 0-.378.503c-.088.13-.177.269-.288.452l-.06.104a8.986 8.986 0 0 0-.234.432l-.016.029c-.17.341-.317.698-.44 1.063l-.017.053a8.053 8.053 0 0 0-.411 2.717v-.007l.001.112c.006.158.013.295.023.431l-.002-.037a11.677 11.677 0 0 0 .042.412l.005.042.013.103c.018.127.038.252.062.378.241 1.266.845 2.532 1.745 3.66l.041.051.042-.05c.359-.424 1.249-1.77 1.325-2.577l.001-.015-.007-.013a5.56 5.56 0 0 1-.64-2.595v-.001c0-3.016 2.371-5.521 5.397-5.702l.199-.007a5.93 5.93 0 0 1 3.47 1.025l.028.019 2.041-1.187v-.03a11.771 11.771 0 0 0-3.511-8.424A11.963 11.963 0 0 0 12.008.48z"/>
    </symbol>



    <symbol id="figma">
      <path d="M12 12a4 4 0 1 1 8 0 4 4 0 0 1-8 0zM4 20a4 4 0 0 1 4-4h4v4a4 4 0 1 1-8 0zM12 0v8h4a4 4 0 1 0 0-8h-4zM4 4a4 4 0 0 0 4 4h4V0H8a4 4 0 0 0-4 4zM4 12a4 4 0 0 0 4 4h4V8H8a4 4 0 0 0-4 4z"/>
    </symbol>


  </defs>
</svg>